<mxfile host="www.draw.io" modified="2020-02-19T19:08:54.748Z" agent="Mozilla/5.0 (Macintosh; Intel Mac OS X 10_15_2) AppleWebKit/605.1.15 (KHTML, like Gecko) Version/13.0.4 Safari/605.1.15" etag="-xJPogupBfKdCJXlqNJj" version="12.7.2" type="github">
  <diagram name="Page-1" id="bfe91b75-5d2c-26a0-9c1d-138518896778">
    <mxGraphModel dx="1423" dy="760" grid="1" gridSize="10" guides="1" tooltips="1" connect="1" arrows="1" fold="1" page="1" pageScale="1" pageWidth="1100" pageHeight="850" background="#ffffff" math="0" shadow="0">
      <root>
        <mxCell id="0" />
        <mxCell id="1" parent="0" />
        <mxCell id="U4LaeEB2JGTNml4eQ_Fa-65" value="&lt;br style=&quot;font-size: 30px;&quot;&gt;Omniverso" style="rounded=1;whiteSpace=wrap;html=1;labelBackgroundColor=none;fillColor=#f8cecc;fontSize=30;opacity=70;align=center;strokeColor=#b85450;verticalAlign=top;shadow=1;" parent="1" vertex="1">
          <mxGeometry x="20" y="940" width="2190" height="810" as="geometry" />
        </mxCell>
        <mxCell id="7c3789c024ecab99-78" value="" style="rounded=1;whiteSpace=wrap;html=1;shadow=1;comic=0;strokeColor=#036897;strokeWidth=2;fillColor=#CCE5FF;fontFamily=Verdana;fontSize=28;fontColor=#6881B3;align=center;arcSize=14;verticalAlign=top;" parent="1" vertex="1">
          <mxGeometry x="60" y="1070" width="1320" height="640" as="geometry" />
        </mxCell>
        <mxCell id="U4LaeEB2JGTNml4eQ_Fa-3" value="" style="strokeColor=#dddddd;shadow=1;strokeWidth=1;rounded=1;absoluteArcSize=1;arcSize=0;" parent="1" vertex="1">
          <mxGeometry x="142.87" y="1094.5" width="304.26" height="91" as="geometry" />
        </mxCell>
        <mxCell id="U4LaeEB2JGTNml4eQ_Fa-4" value="&lt;font style=&quot;font-size: 20px&quot;&gt;&lt;font color=&quot;#000000&quot; style=&quot;font-size: 20px&quot;&gt;Multiverso 1&lt;/font&gt;&lt;br&gt;Virtual Private Cloud&lt;/font&gt;" style="dashed=0;connectable=0;html=1;fillColor=#5184F3;strokeColor=none;shape=mxgraph.gcp2.hexIcon;prIcon=virtual_private_cloud;part=1;labelPosition=right;verticalLabelPosition=middle;align=left;verticalAlign=middle;spacingLeft=5;fontColor=#999999;fontSize=12;shadow=1;" parent="U4LaeEB2JGTNml4eQ_Fa-3" vertex="1">
          <mxGeometry y="0.5" width="90.26" height="80" relative="1" as="geometry">
            <mxPoint x="-5.129999999999999" y="-40" as="offset" />
          </mxGeometry>
        </mxCell>
        <mxCell id="U4LaeEB2JGTNml4eQ_Fa-5" value="" style="strokeColor=#dddddd;shadow=1;strokeWidth=1;rounded=1;absoluteArcSize=1;arcSize=2;" parent="1" vertex="1">
          <mxGeometry x="2060" y="1820" width="130" height="60" as="geometry" />
        </mxCell>
        <mxCell id="U4LaeEB2JGTNml4eQ_Fa-6" value="Dedicated&#xa;Interconnect" style="dashed=0;connectable=0;html=1;fillColor=#5184F3;strokeColor=none;shape=mxgraph.gcp2.hexIcon;prIcon=dedicated_interconnect;part=1;labelPosition=right;verticalLabelPosition=middle;align=left;verticalAlign=middle;spacingLeft=5;fontColor=#999999;fontSize=12;shadow=1;" parent="U4LaeEB2JGTNml4eQ_Fa-5" vertex="1">
          <mxGeometry y="0.5" width="44" height="39" relative="1" as="geometry">
            <mxPoint x="5" y="-19.5" as="offset" />
          </mxGeometry>
        </mxCell>
        <mxCell id="U4LaeEB2JGTNml4eQ_Fa-7" value="&lt;font style=&quot;font-size: 18px&quot;&gt;us-east1&lt;br&gt;zonas x subnets&lt;br&gt;&lt;/font&gt;" style="rounded=1;whiteSpace=wrap;html=1;shadow=1;comic=0;strokeColor=#036897;strokeWidth=2;fillColor=#FFFFFF;fontFamily=Verdana;fontSize=28;fontColor=#6881B3;align=center;arcSize=11;verticalAlign=top;" parent="1" vertex="1">
          <mxGeometry x="100" y="1200" width="580" height="480" as="geometry" />
        </mxCell>
        <mxCell id="U4LaeEB2JGTNml4eQ_Fa-8" value="&lt;font style=&quot;font-size: 18px&quot;&gt;southamerica-east1&lt;br&gt;zonas x subnets&lt;br&gt;&lt;/font&gt;" style="rounded=1;whiteSpace=wrap;html=1;shadow=1;comic=0;strokeColor=#036897;strokeWidth=2;fillColor=#FFFFFF;fontFamily=Verdana;fontSize=28;fontColor=#6881B3;align=center;arcSize=11;verticalAlign=top;" parent="1" vertex="1">
          <mxGeometry x="700" y="1200" width="640" height="480" as="geometry" />
        </mxCell>
        <mxCell id="U4LaeEB2JGTNml4eQ_Fa-14" value="&lt;font style=&quot;font-size: 18px&quot;&gt;southamerica-east1a&lt;br&gt;&lt;/font&gt;" style="rounded=1;whiteSpace=wrap;html=1;shadow=0;comic=0;strokeColor=#82b366;strokeWidth=2;fillColor=#d5e8d4;fontFamily=Verdana;fontSize=28;align=left;arcSize=50;verticalAlign=top;opacity=70;spacingLeft=10;" parent="1" vertex="1">
          <mxGeometry x="720" y="1335" width="600" height="60" as="geometry" />
        </mxCell>
        <mxCell id="U4LaeEB2JGTNml4eQ_Fa-15" value="&lt;font style=&quot;font-size: 18px&quot;&gt;southamerica-east1b&lt;br&gt;&lt;/font&gt;" style="rounded=1;whiteSpace=wrap;html=1;shadow=0;comic=0;strokeColor=#82b366;strokeWidth=2;fillColor=#d5e8d4;fontFamily=Verdana;fontSize=28;align=left;arcSize=50;verticalAlign=top;opacity=70;spacingLeft=10;" parent="1" vertex="1">
          <mxGeometry x="720" y="1410" width="600" height="60" as="geometry" />
        </mxCell>
        <mxCell id="U4LaeEB2JGTNml4eQ_Fa-16" value="&lt;font style=&quot;font-size: 18px&quot;&gt;southamerica-east1c&lt;br&gt;&lt;/font&gt;" style="rounded=1;whiteSpace=wrap;html=1;shadow=0;comic=0;strokeColor=#82b366;strokeWidth=2;fillColor=#d5e8d4;fontFamily=Verdana;fontSize=28;align=left;arcSize=50;verticalAlign=top;opacity=70;spacingLeft=10;" parent="1" vertex="1">
          <mxGeometry x="720" y="1490" width="600" height="60" as="geometry" />
        </mxCell>
        <mxCell id="U4LaeEB2JGTNml4eQ_Fa-17" value="&lt;font style=&quot;font-size: 18px&quot;&gt;us-east1b&lt;br&gt;&lt;/font&gt;" style="rounded=1;whiteSpace=wrap;html=1;shadow=0;comic=0;strokeColor=#6c8ebf;strokeWidth=2;fillColor=#dae8fc;fontFamily=Verdana;fontSize=28;align=left;arcSize=50;verticalAlign=top;opacity=70;spacingLeft=10;" parent="1" vertex="1">
          <mxGeometry x="125" y="1340" width="495" height="60" as="geometry" />
        </mxCell>
        <mxCell id="U4LaeEB2JGTNml4eQ_Fa-18" value="&lt;font style=&quot;font-size: 18px&quot;&gt;us-east1c&lt;br&gt;&lt;/font&gt;" style="rounded=1;whiteSpace=wrap;html=1;shadow=0;comic=0;strokeColor=#6c8ebf;strokeWidth=2;fillColor=#dae8fc;fontFamily=Verdana;fontSize=28;align=left;arcSize=50;verticalAlign=top;opacity=70;spacingLeft=10;" parent="1" vertex="1">
          <mxGeometry x="125" y="1415" width="495" height="60" as="geometry" />
        </mxCell>
        <mxCell id="U4LaeEB2JGTNml4eQ_Fa-19" value="&lt;font style=&quot;font-size: 18px&quot;&gt;us-east1d&lt;br&gt;&lt;/font&gt;" style="rounded=1;whiteSpace=wrap;html=1;shadow=0;comic=0;strokeColor=#6c8ebf;strokeWidth=2;fillColor=#dae8fc;fontFamily=Verdana;fontSize=28;align=left;arcSize=50;verticalAlign=top;opacity=70;spacingLeft=10;" parent="1" vertex="1">
          <mxGeometry x="125" y="1490" width="495" height="60" as="geometry" />
        </mxCell>
        <mxCell id="U4LaeEB2JGTNml4eQ_Fa-20" value="&lt;font style=&quot;font-size: 18px&quot;&gt;private&lt;br&gt;&lt;/font&gt;" style="rounded=1;whiteSpace=wrap;html=1;shadow=0;comic=0;strokeColor=#d6b656;strokeWidth=2;fillColor=#fff2cc;fontFamily=Verdana;fontSize=28;align=left;arcSize=50;verticalAlign=middle;rotation=-90;opacity=70;spacingTop=0;spacingLeft=10;" parent="1" vertex="1">
          <mxGeometry x="230" y="1415" width="370" height="110" as="geometry" />
        </mxCell>
        <mxCell id="U4LaeEB2JGTNml4eQ_Fa-21" value="&lt;font style=&quot;font-size: 18px&quot;&gt;public&lt;br&gt;&lt;/font&gt;" style="rounded=1;whiteSpace=wrap;html=1;shadow=0;comic=0;strokeColor=#d6b656;strokeWidth=2;fillColor=#fff2cc;fontFamily=Verdana;fontSize=28;align=left;arcSize=50;verticalAlign=middle;rotation=-90;opacity=70;spacingTop=0;spacingLeft=10;" parent="1" vertex="1">
          <mxGeometry x="350" y="1415" width="370" height="110" as="geometry" />
        </mxCell>
        <mxCell id="U4LaeEB2JGTNml4eQ_Fa-22" value="&lt;font style=&quot;font-size: 18px&quot;&gt;isolated&lt;br&gt;&lt;/font&gt;" style="rounded=1;whiteSpace=wrap;html=1;shadow=0;comic=0;strokeColor=#d6b656;strokeWidth=2;fillColor=#fff2cc;fontFamily=Verdana;fontSize=28;align=left;arcSize=50;verticalAlign=middle;rotation=-90;opacity=70;spacingTop=0;spacingLeft=10;" parent="1" vertex="1">
          <mxGeometry x="110" y="1415" width="370" height="110" as="geometry" />
        </mxCell>
        <mxCell id="U4LaeEB2JGTNml4eQ_Fa-23" value="&lt;font style=&quot;font-size: 18px&quot;&gt;private&lt;br&gt;&lt;/font&gt;" style="rounded=1;whiteSpace=wrap;html=1;shadow=0;comic=0;strokeColor=#d6b656;strokeWidth=2;fillColor=#fff2cc;fontFamily=Verdana;fontSize=28;align=left;arcSize=50;verticalAlign=middle;rotation=-90;opacity=70;spacingLeft=10;" parent="1" vertex="1">
          <mxGeometry x="930" y="1415" width="370" height="110" as="geometry" />
        </mxCell>
        <mxCell id="U4LaeEB2JGTNml4eQ_Fa-24" value="&lt;font style=&quot;font-size: 18px&quot;&gt;public&lt;br&gt;&lt;/font&gt;" style="rounded=1;whiteSpace=wrap;html=1;shadow=0;comic=0;strokeColor=#d6b656;strokeWidth=2;fillColor=#fff2cc;fontFamily=Verdana;fontSize=28;align=left;arcSize=50;verticalAlign=middle;rotation=-90;opacity=70;spacingLeft=10;" parent="1" vertex="1">
          <mxGeometry x="1050" y="1415" width="370" height="110" as="geometry" />
        </mxCell>
        <mxCell id="U4LaeEB2JGTNml4eQ_Fa-25" value="&lt;font style=&quot;font-size: 18px&quot;&gt;isolated&lt;br&gt;&lt;/font&gt;" style="rounded=1;whiteSpace=wrap;html=1;shadow=0;comic=0;strokeColor=#d6b656;strokeWidth=2;fillColor=#fff2cc;fontFamily=Verdana;fontSize=28;align=left;arcSize=50;verticalAlign=middle;rotation=-90;opacity=70;spacingLeft=10;" parent="1" vertex="1">
          <mxGeometry x="810" y="1415" width="370" height="110" as="geometry" />
        </mxCell>
        <mxCell id="U4LaeEB2JGTNml4eQ_Fa-26" value="" style="shape=image;verticalLabelPosition=bottom;labelBackgroundColor=#ffffff;verticalAlign=top;aspect=fixed;imageAspect=0;image=data:image/png,iVBORw0KGgoAAAANSUhEUgAAAMAAAADACAYAAABS3GwHAAAQDUlEQVR4AezBAQEAAACCoP6vbojAAAAAAAAAAAAAAAAAAABIe3t3GR7FucZh/N0kS+NADYtVw4EDwakXqTvU3d3dvdTd3d3dDeruDhxSGndIQmR3n3Nf9P10ZK9k2WTemX0+/Kphsf+9zMxa7czJIYSRjcEYggIUY22UWmujCCMwBIOQjTBCMH1DJeeGVDryUIhx2Ann4T68iLn4Cj9jIcpRgUrrL5RjPn7CF3gfL+A+nIvtUYYC5CINRnkRgApjCCbhWDyCj7AADehADJIkMXSgHn/gAzyEIzEBqyMMo/oiABVCPv6JY/E8fkIjIhCPRNCAH/A0jsA/kJuMQycNQOVhIi7DR6hGBOKoblRhLs5FGXJglAbQU2GsjVMxD3WIQXwmihq8i2NRggwYKA3gv+RgGh5CObohAdGNBbgPGyEbRmkABoOwB95CEyTgGvAadkKeBpDawz8AH6ENkmJa8S5mp1YIGkA2ZmEu2iEprhXvYFtkagDBlY718DyWQgBlNeMpTES6BhAsBbgG1ZC4VAUuwVANwP8GYDa+7tX1exXBZ9gWYQ3AnwpxG5ohCVGNuAHDNAD/SMNm+BxRyApREXyITZCmAbgtB2eiFpJUqgJHIUsDcFMBHsQySJ9Q7bgLQzUAt4zH3H455FFRvIXRGoD3QtgcP0NU/6mbOem7RVtO29RUSQjGr3z7A7cnZHviL4jq1/HLoi2ny4XHPL1o2qXtO069QtJg/MiXP2j7tN7DUAdR/T3+aXLJ0U/IZpe0yIw5rVXYE+kwfuO7H7Ad/wl6fd/r8S+R6XPaCKBVUI+D/BiBX8ffAnGBjh9Aox8j8NP403CYi8/Z1/EDqMeeCGkAyR1/CHu4fMyv4wdQjR1gkkcD2AyLIS7T8QNYiI01gOSMfxx+gviBjh/ANxilAazY+AvwPsRPdPwAXsdQDSCx8efgAcQgPqPjB6K4BdkaQO+v+JymT2zz8/gBtOOw3l0Z0gBmoAriZzp+AH9hQw2g58f9n0CCQMcP4H0M0wDij38AbgnocX8E7WhCNSpQblWgBs1Yhkigxg9EMQdhDeD/BzALzQEZeyN+wQs4A7tjBiZhFNZBsbUORmMyZmIPnINX8CuaEPXv+AE0YnMYV7g0/uH4AuJTXSjHE9gPEzAUmQgl+FqHTAzDJByAZ7AYXf4bP4APXToUcmX86bgSUYiPxFCPF7Ab1sJKMH0kE+tgD7yCRsR8M34ggtORBgNoAFNQ4bPh/4nLMcGjd1vOxRRcjwrE3B8/gMUYpwHAjucZiE9U4iKUOvJ++2GMxlWocX/8AB5EFlI+gB3QAnHcUtyHMkc/aCKMSXgC7U6PH2jGzJQNwI5/IN7xweHOd5iFbBjH5WJ3/ISYm+MH8BLyUzmAPdEGcdQy3Ik1YHwkhHXxCOPvdHL8QCu2S8kA7AdUzIU4qhZH+flD5pqml+X9ucUmJ805+vEG98YP4A0MTMUAZqMV4qDfsQ3SYfzs4f3nZMycs3SnGXPaFjo3fmAptkipAOy96uuQpJrRQzPj+hpTYILCPhNzY/wAcdDTyE6lADZCwwoNffoU/o6Z/PPmk6Ruq4lSt90Eqd9xnNTPKpP6ncukYdexy/HP/Dfw//ia5V/Lt7G3xW1wWzaMLzEOJmhsCJPxPcQxDZiSEgHYS4j39nrwdux1W0+U+tll0rjfKGk5ZU1pvXKYtN+2qiy7b7B0PJIvHU/mSuczOdL5XLZ0Pm89B/4b/0/4muVf237rqsu/bcvJa0rjvqOJZOzChj3/uRFMkNkIfoQ45kqkpUIAJVjQo9Gjbsu/B9901LrSevVQWXb/oOVj7nolU7rfCkv3uxkW3slAOB7YrwW4jQHLb6vrpazm7rfD83ArtkcxMmGCht+HTfAviEPmoyQVAjgG3XHv6beYtPzQpeWMEmm/c+W/B//6ADtaO/K3k8zeptWOhXgFR2ItDAhYBLNRD3FEF/YIdAD25Ped/3tvv914aT56HeGQZvlhi72Ht+P0TDfK8TS2x8oIBSCAdJyODogjXkJ2kAMYi2rY4YO/188aJ0vOKZaOh/O5p18pzug914rPcTyGI+TzCPLwJMQR1RgT5ADO/a/hn18oHU/kcm9vj88Zmg904Sec7ucQbASl+BnigCgODmQA9vDnPca//FIkx/cMPy/+8N3Xje9wOAb5OIL90AZxwOvICVwANdOmlnLtvaLp0JHLL0N2vzkgzvB9pwPvYAYyfBhADp6DOKACpYELoOmQkYdy3b276+XMOMP3vTpcg2E+jGA9VDlyNWjXwATAL246tuBa+y9/H+7g7UCL4GNMQ5qPAsjAnRAHfIVNkebbAOz4c3EO6iAppgrHI9tHEYzFXxAHVOI4ZPkuADv+AjyMDkiKasfdGOqTAMK4H+KIdtyFIb4JwI5/DN5HFJLiongDpT6JYEM0QBwRxWsodT4AO/4N8C1EWcDnmOiDAHLxLsQxn2OiswHY8c/EbxD13/ADNvJBBEejG+KYH7ChkwHY8S+AxKV+xYaOB7A2yiEO+hUbuBSAPezRe/5e+B4THQ4gC29AHPU9JrgQgD3h1WP+BHyGdR2O4GyIwz7Fup4GYC91vgtRCXkVQxwNYCqaIA57FUM8CcA+yPUQYhCVkChuQ66DAQzHbxCHRXEbcvo1APv0hnOS8iCXasCGDgaQjXcgjluGIxHqzwC2QA1ErZB2nIVsBwMI4X6ID1Qm+sHciR73fw5RK6QdZyLL4RPhUxGD+MA8DOuzAOz4w7hJj/uDP34bwDbogPhAFBcjoy8D2AINEBWg8ce/EtQC8Yk6bNwnAdh3Q5gLUcEfvw1gDGohPvIaBvdFAMehE6KCP34bQCkqIT7SgX2SFoAdfyF+hKQGHb8NYF1UQHzma4xIZgDnIwpJDTp+G0AxyiE+E8FRSQnA3vv/DFGpM34bQJEvAwC+R0EyAjgNEYjy0fg1gC7sn3AAdvyr4kuIj3SiCVX406pCM7p0/D1nj6M/QQ2a0QnxkQ+xyooEMAttEIdFUYv3cTq2xWSMRIk1ElOwHc7GPNQhquOPG0AGCjASk7EdzsY81CEKcVgrZiYUgH078GcgjurCdzgeY5CHEAziCSEfZTgFP6Fbx9+r5wjlowwn4wd0Qxx1D8KJBLA2yiGOieFXHIZhCMEkKIQCHIsFiOn4ex3DCByN+YhBHFOOtRMJ4GgHT36X4U6sjRBMkqRhFB5Fp44/oRBG4mF0OHgyvFuvArAfDfQqxCF1OLKPnzqch5PRpONP+C1VTkQjxCGPY6XeBFCChRBHVGJnpMP0sQzsjVodf8InznuhBuKIhSjpTQA7oB3igHrsgjSYfpKG/dGk408ogjTshQaIA9ows0cB2GPr2xw65j8K6TD9LANnoVPHn/CfBKc5dE5wRk8DyHXoac93IwfGI3l4Rse/QucET0Ac8BZyehJAkSPv8PabI++bMwb/0vEnHMEozId4bAEKexLAFDRBPNSNI2AcEMK5aMVZOv6ELpGeiQjEQ02Y3JMADnLg+v/3GAHjiALslfDhmEZQgJ8ceDxgp54EcKMDj/SeBOOQkGVUwhFcCfHYMXEDsFc+noZ4qAZlMCpQAUxw4PXFtyE9XgBZeA/ioXnIh1GBCiAfH0M89Day4gUwGF9BPHQOjArkyfBdDnz65OB4AQzFLxCPdGEHGBXICPZHN8Qjv2BovAAKPX4OUAumwqhABrAeWjx+TlBhvACKUA7xSDVGwajAPihWDfFIOYpcDqAS68KoQAawLio9DqBYA1COBqAB1GA0jApkAKNR4/IhUIHHT4RbgvVhVCADWB9LPH5CXEG8AIbgJ4hHujELRgUygEMQgXjkJwyJF8AgfAHx0EUwKpAPhN0L8dAXGOT6UyE+xiAYFRx2eJ+5/lSIDDzlwGuAJ8KoQAUwBfUQD92CNMR9OvT1EI+dDRMoevhzA8RjR/Xk9QD7oMuBl0OuAaMCEUCJAx+63YXtexLARDRCPBTFyTAqEG+RMgcxiIcaMbEnARTgD4jHFmEsjPL9C2HKIR77AwU9CSAb70Ic8LTvrwjplZ+XHPr0yOz4ATjzumAAXTgHYRjlq/EPwGXogjjgJJieBrAV2iAOaMEhSIdRvhh/Ok7AUogDWjG9NwEU4g+IIxpxCMIwyunxh3ECmiCOmI+i3gQwAM9DHNKCCzEQxll6zH85lkIccj/Cvf2AjP3RBXFIF17EeKTBKGcudU7Ay+iCOKQTO8LEDyD+ZwS45s/I2+E5VW/mrjH9iR3SYVT/s8NfA5dhMcRBC1GSSABhPAZxTQRtb60Uuez5CfMnPr7zzZMe33k9DEIaTN9RdvSDsR5uxnxEII66GRmJfkzqllji4PjlphfHyoZP7CQEEOM3pgFf4AEcgQ0xBqXuml065eHDS6ddUV46Y04bWl02BhvhSDyAL9CIGMRhS7AJTKIBDMLHLo5//SdmCeOXSf8tgqWoQ6W7ZldOefiwSgKoJAC0uqwWSxGB+Mj7GJRwADaCI9Dl/vj9ZrYQgBCAEABaVXJ1Yk+YFQ1gKL7V8fssAPUFhq5wADaCE9Ct4/dJAKoL+8MkK4Ah+ErH75MA1KcYkrQAbAQHoF3H73gAqh27wiQ7gHy8puN3PAD1LPKTHoCNYGNU6fgdDUBVYSpMXwWQjksQ0fE7FoCK4HSk9VkANoLVMVfH71gA6k2sBtOnAdgINsJiHb8jAahyTIHprwBCOAJtOn6PA1Bt2B+hfgvARpCFWxHV8XsUgIrgMmTC9GsANoLV8KKO36MA1JNYBcaTAGwEa+FDHX8/B6DmogTG0wBsBGX4VsffTwGoLzEaxokAbAST8b2Ov48DUF9hHIx3AcSP4Bsdfx8FoL6EHb+DAdgIxuJDHX+SA1BzMRrGqQDinBg/j6iOfwUDUBE8iWIYxwKIf4mU8V+/9K3M9ht1/IkFoFpxGVaG8VEAgMw1WQ+/VHrIRk/stFjH38sAVDn2QyaMDwMAhj90RNrEx3eZym/6O4hAVJwAVDfexCSkwfg5AAD8pq+Os1ENUf8jAFWJU+I/uuvTAGwE6ZiK57FMA9AArHY8g8lIh/F/APFDyMdu+AzdEGgAqacLn2Bn5MEAQQogfghDcDC+RqcGkDI68SX2x+owQIoFYCMIYSj2xHtYqgEE1hK8i90xBCEYVwJwIYbB2BQ3YyE6NQDf68QC3ICNMRAGADSA/w4hjBLMwv2YjzbENADnxdCK33EPdkQxMmAADaA3MQxAIabhRLyKP9CITk+j0ABi6EQDfsdLOA6bYATCMAA0gKQEkYURmIDtcASux2v4DD/idyxCubtmlxNAOQGUEwBaXbYIv+MHfIaXcS0Ow7YYjxFxHrXVAPo4ijRkYiBWx3AUuW12EQEUEUARAaDVdcOxGgZipT55lFYDUEoDUEoDUEoDUEoDUEoDUEoDUEoDUEoDUEoDUEoDUEoDUEoDUEoDUEoDUEoDUEoDUEoDUEoDUEoDUEoDUEoDUEoDUOrfJ6RJWWpToNEAAAAASUVORK5CYII=;shadow=1;" parent="1" vertex="1">
          <mxGeometry x="1238" y="1094.5" width="102" height="102" as="geometry" />
        </mxCell>
        <mxCell id="U4LaeEB2JGTNml4eQ_Fa-27" value="" style="rounded=1;whiteSpace=wrap;html=1;shadow=1;comic=0;strokeColor=#036897;strokeWidth=2;fillColor=#CCE5FF;fontFamily=Verdana;fontSize=28;fontColor=#6881B3;align=center;arcSize=14;verticalAlign=top;" parent="1" vertex="1">
          <mxGeometry x="1500" y="1070" width="660" height="640" as="geometry" />
        </mxCell>
        <mxCell id="U4LaeEB2JGTNml4eQ_Fa-28" value="" style="strokeColor=#dddddd;shadow=1;strokeWidth=1;rounded=1;absoluteArcSize=1;arcSize=0;" parent="1" vertex="1">
          <mxGeometry x="1582.87" y="1094.5" width="304.26" height="91" as="geometry" />
        </mxCell>
        <mxCell id="U4LaeEB2JGTNml4eQ_Fa-29" value="&lt;font style=&quot;font-size: 20px&quot;&gt;&lt;font color=&quot;#000000&quot; style=&quot;font-size: 20px&quot;&gt;Multiverso 2&lt;/font&gt;&lt;br&gt;Virtual Private Cloud&lt;/font&gt;" style="dashed=0;connectable=0;html=1;fillColor=#5184F3;strokeColor=none;shape=mxgraph.gcp2.hexIcon;prIcon=virtual_private_cloud;part=1;labelPosition=right;verticalLabelPosition=middle;align=left;verticalAlign=middle;spacingLeft=5;fontColor=#999999;fontSize=12;shadow=1;" parent="U4LaeEB2JGTNml4eQ_Fa-28" vertex="1">
          <mxGeometry y="0.5" height="0.5" relative="1" as="geometry">
            <mxPoint x="91.87" y="3.5" as="offset" />
          </mxGeometry>
        </mxCell>
        <mxCell id="U4LaeEB2JGTNml4eQ_Fa-45" value="" style="outlineConnect=0;fontColor=#232F3E;gradientColor=#945DF2;gradientDirection=north;fillColor=#5A30B5;strokeColor=#ffffff;dashed=0;verticalLabelPosition=bottom;verticalAlign=top;align=center;html=1;fontSize=12;fontStyle=0;aspect=fixed;shape=mxgraph.aws4.resourceIcon;resIcon=mxgraph.aws4.vpc;opacity=70;labelBackgroundColor=#9933FF;shadow=1;" parent="U4LaeEB2JGTNml4eQ_Fa-28" vertex="1">
          <mxGeometry x="9.129999999999995" y="6.5" width="78" height="78" as="geometry" />
        </mxCell>
        <mxCell id="U4LaeEB2JGTNml4eQ_Fa-30" value="&lt;font style=&quot;font-size: 18px&quot;&gt;us-east-1&lt;br&gt;zonas x subnets&lt;br&gt;&lt;/font&gt;" style="rounded=1;whiteSpace=wrap;html=1;shadow=1;comic=0;strokeColor=#036897;strokeWidth=2;fillColor=#FFFFFF;fontFamily=Verdana;fontSize=28;fontColor=#6881B3;align=center;arcSize=11;verticalAlign=top;" parent="1" vertex="1">
          <mxGeometry x="1540" y="1200" width="580" height="480" as="geometry" />
        </mxCell>
        <mxCell id="U4LaeEB2JGTNml4eQ_Fa-35" value="&lt;font style=&quot;font-size: 18px&quot;&gt;us-east1a&lt;br&gt;&lt;/font&gt;" style="rounded=1;whiteSpace=wrap;html=1;shadow=0;comic=0;strokeColor=#6c8ebf;strokeWidth=2;fillColor=#dae8fc;fontFamily=Verdana;fontSize=28;align=left;arcSize=50;verticalAlign=top;opacity=70;spacingLeft=10;" parent="1" vertex="1">
          <mxGeometry x="1565" y="1340" width="495" height="60" as="geometry" />
        </mxCell>
        <mxCell id="U4LaeEB2JGTNml4eQ_Fa-36" value="&lt;font style=&quot;font-size: 18px&quot;&gt;us-east1b&lt;br&gt;&lt;/font&gt;" style="rounded=1;whiteSpace=wrap;html=1;shadow=0;comic=0;strokeColor=#6c8ebf;strokeWidth=2;fillColor=#dae8fc;fontFamily=Verdana;fontSize=28;align=left;arcSize=50;verticalAlign=top;opacity=70;spacingLeft=10;" parent="1" vertex="1">
          <mxGeometry x="1565" y="1415" width="495" height="60" as="geometry" />
        </mxCell>
        <mxCell id="U4LaeEB2JGTNml4eQ_Fa-37" value="&lt;font style=&quot;font-size: 18px&quot;&gt;us-east1c&lt;br&gt;&lt;/font&gt;" style="rounded=1;whiteSpace=wrap;html=1;shadow=0;comic=0;strokeColor=#6c8ebf;strokeWidth=2;fillColor=#dae8fc;fontFamily=Verdana;fontSize=28;align=left;arcSize=50;verticalAlign=top;opacity=70;spacingLeft=10;" parent="1" vertex="1">
          <mxGeometry x="1565" y="1490" width="495" height="60" as="geometry" />
        </mxCell>
        <mxCell id="U4LaeEB2JGTNml4eQ_Fa-38" value="&lt;font style=&quot;font-size: 18px&quot;&gt;private&lt;br&gt;&lt;/font&gt;" style="rounded=1;whiteSpace=wrap;html=1;shadow=0;comic=0;strokeColor=#d6b656;strokeWidth=2;fillColor=#fff2cc;fontFamily=Verdana;fontSize=28;align=left;arcSize=50;verticalAlign=middle;rotation=-90;opacity=70;spacingTop=0;spacingLeft=10;" parent="1" vertex="1">
          <mxGeometry x="1670" y="1415" width="370" height="110" as="geometry" />
        </mxCell>
        <mxCell id="U4LaeEB2JGTNml4eQ_Fa-39" value="&lt;font style=&quot;font-size: 18px&quot;&gt;public&lt;br&gt;&lt;/font&gt;" style="rounded=1;whiteSpace=wrap;html=1;shadow=0;comic=0;strokeColor=#d6b656;strokeWidth=2;fillColor=#fff2cc;fontFamily=Verdana;fontSize=28;align=left;arcSize=50;verticalAlign=middle;rotation=-90;opacity=70;spacingTop=0;spacingLeft=10;" parent="1" vertex="1">
          <mxGeometry x="1790" y="1415" width="370" height="110" as="geometry" />
        </mxCell>
        <mxCell id="U4LaeEB2JGTNml4eQ_Fa-46" value="" style="outlineConnect=0;fontColor=#232F3E;gradientColor=#945DF2;gradientDirection=north;fillColor=#5A30B5;strokeColor=#ffffff;dashed=0;verticalLabelPosition=bottom;verticalAlign=top;align=center;html=1;fontSize=12;fontStyle=0;aspect=fixed;shape=mxgraph.aws4.resourceIcon;resIcon=mxgraph.aws4.direct_connect;opacity=70;shadow=1;" parent="1" vertex="1">
          <mxGeometry x="1962" y="2090" width="78" height="78" as="geometry" />
        </mxCell>
        <mxCell id="U4LaeEB2JGTNml4eQ_Fa-49" value="" style="shape=image;verticalLabelPosition=bottom;labelBackgroundColor=#ffffff;verticalAlign=top;aspect=fixed;imageAspect=0;image=data:image/png,iVBORw0KGgoAAAANSUhEUgAAAggAAADDCAYAAADnTOk9AAAAAXNSR0IArs4c6QAAAERlWElmTU0AKgAAAAgAAYdpAAQAAAABAAAAGgAAAAAAA6ABAAMAAAABAAEAAKACAAQAAAABAAACCKADAAQAAAABAAAAwwAAAAAOlckbAABAAElEQVR4Aey9B5gcx3nnXdXdM7M5YRc5kQSISIIgAGaKFJWtYOt8oiVbtiTLkixLVqBkK50tyHePLFkSqbNk++jzWbbPn+2jHGTLspIlZlIMiCQiQRA5LjaHCd1d3+/tDVwsNkz3zOzOLroeLGamu8Jb/0r/euutKq1iFyNQIAJGKd35h/UNFY51i7LNezxP/7Xb6z1et7WrXSvF69iNREDwatvaVFtV7W22HP1B5VsPZDPZh2o+29Ma4zUSqfh7jECMwHQiQH8UuxiBcAjIACfDft8fNS9wUv6tyldvNMrcaWm1zLKU8nnn+eq4ZdQjylLf83z9WOU9bScIJf94e3m5Ibx6vlrTkkw6NxtPvxEU7tKWusoZxMv11Wlt1GOWNt/zPPNIxSc7j1yueF1etSPObYxA+SIQE4TyLZtykkwbGda/oHSmvn65ZexXGst/o+9btyZtM9fSWuU8oxjkhp0MfAkbHkG4jGcu8PNnRqvva8/9SbKn+6D6PEPkLCYM5FsLXunGxsW2b+7gJyRK3e5otdAGl5xrhEQNsyUbgJI8F5dxTYcy+hml/e9rpf8z2dW+D7y82YzXcMWJv8QIxAiUDQIxQSiboigvQYYGuL1KOStrG9Zoy3qVp9QbYApbko6uF2mzkAIZ5CZzaBYUYRQ8QmVyppeBbgfU4Uda+z9q7eh6bsFalVFvUz7vhYbMSDeEF8Jb2Zqmq7Vj7kKT8nM8vzHl6CZpaKHwgiygYQAvlTbK3w18P1SW/pHjtO9ULap/puM1Iws5FjpG4DJDICYIl1mBT5TdrVuV9fm1DN/nVWV/tnGDbcxrGbVfp329IZVUFQYyIIOcLCFEdUIWEjajKF/SOZTtSu21LPOfaCN+kE3mttW2dncSt6+2Mod+eYIdNbmShgtIwbdZRDmhkv2q7hrbsl/NMsHrwef6VEJX815l0RQUgpeQKsHLHsDL8LGfcvgpqX4/ZeeeVm097TMFr5IWRhx5jECMQNERoPuJ3eWKAOOXZiCWOmB1J2vrk1V6s2Ws1/tKv5pna5j52h6jWw7VgQx2xXYy+MlShMNsWQZS0nhJa/0IEn3f89QTlTVtZ1QjZKGMtAsGEgUOVkd9Q02NpTZiX/F69B6v4dl6SEHCH8SrEFIwHs5SUA5kQfByB7Q3x3n2qNbmB55rHquo6zxRbniNl5f4eYxAjED5IyB9TuwuIwSGZ717la3q5rRkLfcWlPtvMFrfQWW4UpYCZPBxhRRMMS6B3QLpB4Osq89pyzzpsA7vGu+RY3bP4RVtrMOjXdBbIQ1T5AIS9QCkQPBqqW7KuokbDXih33glCF0NKVAYFaqc2BNMMWAX2Xm4pg0D0adYpfm+MfqhpNN+UE0DXlNULHEyMQIxAlOAQEwQpgDk6U5CZr3bFih7U0ZZGdOy1PJztzOWvcEY61bHMguGjOZGGhlOt8yjjPa6UK1vR33/Q6OsnyY8Z8/e3rO5tWshDHdDGIrMZYa0BKpJ2Wk9b6HtZm4TUmAsdRuT9yVDM/jpIFHjlQtyqYTYeeABI8dePnbalvkRROYnXZ36uSbVllYlwms8meLnMQIxAjMbgZggzOzym1R684Cye082XJNQ+rUGmwIGjM3JhK6Xgs/XaG7SRErsAXIQ7IiQLZTYLeT4uReLxweVZ37U26Mfn7O1ratYIgg56KlrWpNS/qtZank9RGpLylZzWPq4ZKdGsdIsdjwDeLEOwpfAzgO7BdRBDyvL/DDVbx7Vn+kUu4XYxQjECMQITIiArKfGbjYjgGpc+2opk+y1qJ4XMcV0WLPOMPC5ZHuKleIRgQ52NxhZXsiiVsdaQc1Bn7/asvWqVJVdFTHW8YJZCV8tBqf1LBkspoEk2U2QwbOkK4aT5e/AC1kDvJK2ymLU2IiFx9Xa6NVpbdWWfwZiCWMEYgTKAYEZ0d+VA1CzQQZz7+LKnNuzSqX0TVCD2zGk20QFWJJ0FMaIykFlbvFs2uvEoPGi51habCQ9zlhoQ97ntaUf95X/aEW/95z+bPeFUpeJ+WOVUlbTilxO3egp/w7owRYIw9JkQjm+r21sNWzMD8oCL5ZkfM6dcGEGXsb1RaOyx9LW4ygRHs30OrtrPnfubKnxiuOPEYgRmF0ITHvnNrvgnFm56fjD+sbqlLXetyALvroN6a9hxtmEOp0B0NgY3rHTsfR5kkooAxxr+7Lt0UUtLmclHGBwe1IZ67GkY7bpj3AS4zS7ti811lck9DpOO7wVUW4Fm+vYgthis7/R83wHFYMFjiVvU0N4QQjk8CS3P2v6IVUHURw8pbX1mO962+QkRp5NQelNc6HEyccIxAiUDIGSd2YlkzyO+CIEGAlk4l3QgNB375xFltLXK+O9goHnRiJbXeHoahJymMU7aBmCJalCEpEKJ+EHZ7weQgshELuCF3n+DAvnj+aUfqa2svWw/oDKXZTJED8YvMVsYFxReVEwXubrc+dlfHcj6vvb2X14s8cyDvdR1JKqk/PBC8IgEowrRB75GcIL+wvDSYsu5eJx2JQsD71ka/OMECiWEJ5KLm07pO9W2TyiHNPLZHiNGSh+GCMQIzCrEZD+J3azAAHz1drmbvLR01Pbt2DBqZx6v3InGiAny/Kz71eJ9auar+AQoxuV8W9nF98WBpErKpI6wWcCwiDLEmIPN+EAOPQejwb7AY8dE7kcAxzxnUS+HQxuj3uW/WRVVXK//sCpvsnkmui9GGSqvcsTqrIn0ab8+qbfbZM0xhyfRXtiO16ipq6uR6nC8ZK0M2fmLvfd3BbSfAVEazPrIysqkzrFMkkiWI7IEy/Jo8idAC8NKWAbZY7zFk4rbXaxBvQEFptPdPbrfS2fapUij+wCvM4op7W/OVld6ddXtrWdmsotpJEFjwPGCMQITAkCMUGYEphLn0jf1xo+Upm03sfs8iHHtn6as73tFTpxQXnnc+yHzxXa8ZutLTV9Df4a23g3cbLirYxg17GNTrZIJhjAEoz4shzxcn1ixitHBPDe9RngOGyplbfP4+EJ33eeqLAyz+t7utoKQSZI78+Vo9TCRPeF7spE0llj2dbtKPxfnXV1puqe9jeS3pgEof++xl9hRv57yPUQRog/NQnv2e7uxPnmyoasevSQq78dGPlFFs88sLiy92TPKseYm4xl3Y6h6EZI0iKWBRK+MWhksGMQLcdQCuDFVkWxI8hBmnLsMGnn5R6OYXzSt+zHc15qd90nT7UOeY/yKXhtA6+Fpxcmcqne1IJK52rK5nY7YV6NnUV1ZaL91fojgUFmlOjjMDECMQKzDIHh/mmW5euyy07ffU2frEypr4jyWQ46YvA5jo79Ke2bnyYS5on2Pn2kMVmdVV0ncpyeKGv9Yw6c+QInGot0IrnB8r3bMNi7mcF/LdsBGzAkZEwUQznVzSR4v7a5pCmrHk9V2Dv0b7eeyjf+8fwFZxQ0qYTMepttt6mf4x0c27+T/N5Buqs5uCipoQz9/eZnVZ9ov3m8ePq/1vDuigrrW7I3IrCE5DZF8sAFSdZPLN99IpG1XjidrswtUKeyRcHr3rqmtEpeYxnvFs5TuBlZr0laag47MRxKwut3Va9lzAHIytOB3UXKbNcfajs+nvz5Phe8DoHXCrslwYlODV7OXOdb+pXUkFdwtsN6trxWUEYqnTEHKrrar4VIRl6myFem2F+MQIzAzEAgJggzo5wmlbLv3qZPVCbUVzFYC/zKKXtyoI/84ubALr7sZvB+EK31I1mV21OVrO5WLeeznCjgFqxdQCOe/mrDUstWm9h9fy2b7PYb19mW6jv/EnHLenlkh/xyHLStFixMqr6+ZJ+vrkhY+iYmw3f5ytxENhcz6w4GeVm3YOBVKQgCBOUJCIIYE47p+u9teBf2An/VnxvASw5mknjEcexzL9+ew4LgIddVj3BR1e7KnO5Sla3ZYmhjJA3zZ3MWZfr967n8ahNGoi9iF/p0qkC7C4lXHKTAOa0WJivr+5IJo5cktRZ7krs4B0MI03I5LdMDqOCgJ17IXQ9ZT+2t6m7fGBOEAML4vxiBGAEQoCuN3WxEQAZLl2m1OFTbdY6jb+PztqxrubZJHcpkvcf0icYHM5XuNnO/c0b1ol1YfCKLoZvsnw/lAm3EJzuOEkj+/jlU4DE8D8960RIo3V+dSTjrdV/6FZCCO8nDBi4uqiPN4HppyadoAMZwYz4cw1/wCHuK4XhIo9q21U1cY32Tb5lPMZy+mEtajyu34cFMjfVM+33+qQZTkxFtTFQCpD944SQJy993x5Mp3+eM9XK1dEK1tECi+qtcx1k7R6Vv18pCs2I2QtwayVNACCSfGIWOGTU3d8YuRiBGIEZgGIGYIAxDMXu/yPgplyGJY13b4cKf1cyYVzNY/EbCcc5k+9Wzlu570Jyqe9zcq144n0plW5zzmUINHcMgGhjMnVgMIehJZbQ3b6lxNuWS/it9lbwV7cfKhCNr9gP3RHCUcJioQ/sdwEuCycirNHYUK8BrhWesd7F+0pr0rW1Zu/dBq7Hx8e4v5g7U1Ff2q/NoYz6Prcc4RpGhhZgkgOB1ArwWV/cmM/d5LbrB2ahz7p3GTsiWVZZalBiTylLTcNlPFCUKFLN2QaBwmshb/C5GIEbgMkIgJgiXUWFLVmXQkNsZ2YUQ5JyBb35C6zcxEr4p69m9WW321GXdR/oyjY9Yf2J2m/t1h0rWZ9TRI1lmy8w/i+OGZr2tlc2plJ1J9Z+EBOi+myEBrzTG3sK2vnlyc2GgIUDU8Wa9E0gzkMEJPOTzSiIZhVczyzevw77jddmcSicrnH25jPeIW9/wSPbrZqe5T3OoE9qFiNqY8WRCDq3uR+PntqSUSaf6Tukr59k9N2V7LewJ7BuwX1gkS0psteSyq/B4Fa1gx8tA/DxGIEZgxiEQE4QZV2TFFfgS1bqlb0C1fgOz9E/onD6cc9WTXn/7Q1Z14zNdX3RP1iaq0qr3bCaKal2WDtSy5UnV0VHR8SXVUFmnr6nTnLmg7FdwDPQ61PrVNuMgBzQF6nAxtiw3NxIvtAUVaBc2Mi5v9F390Qqlj6JC+JlSvQ+p4w1PmW96x5SuyCi0MVHOdAjwwmRALehM9fek60xfYn1Su7exaeQOtoxcS9q1YmA4sJwkn9HxEg1CuWEdyxMjECMwvQjEBGF68S+r1Eer1pnFX8Vxx1dpY73Ts1VrhZPY4ersQ6q6+YmeP+rfn/WT/Y3p9n7IwriW76IKP3++pbKFWW/WrVykO9u3sFPgzsqKwJL/SrYastFigBCki7t0UPIBL9DGYIKZG1iKkMOflqH1WIYW5JcwAOzI5ZydzOkf9rJzHuv9st5b1eD1Hsq0p1dOsJUwIAXV8yq7c30VPRWJ+SmrY5Ppte60rIpbSG8FpIDzkQbwKuZSS6xBKKumGAsTI1AWCMQEoSyKofyEkNFVrNyHZvEMfs38vQbV+msytpdJ6MS+Cls95lY0/ZtSbT8eLweZk/OWNTrZd+TcxB2+yV3vWNYcjAyD2e5EBnPjxVeuzwO8RPMxOIsniw1wnzvZtnin5/o5O6EO5vrU4wv9hu8p1QFmY7v+ujkLEnb2V5JO4k4sCK5nZWEe9heBlkAUKhGWWsZOaNTTQINwOtYijIIl/hkjcFkjEBOEy7r488/8KNV6imWI62zHui6d9q8hlnEJgudlX5+qsP4HdztwIOPF6/n5px7Jp4zZ0+aEJ2RkRIdksRSRwG5hncM9Dl4azclW9e/j2nMYc4vjWF+20abkfDHKfJmklTIzsQahlOjGcccIzEwEYoIwM8ttWqUeMnS0gu1yXBg0kROrfga7YqrDJ0quHN8N4SVQ8H1ivMiAAa8iL7dMCstU7b6YVJDYQ4xAjEDZIIBmMXYxArMSgWnVIIyHaFkKNZ6w8fMYgRiByxqBmCBc1sVfeOZl2aD8nByjVJ6uXGfqQTmujW0QyrPWxFLFCEwPAjFBmB7c41RLjcAUHVgUJRtfiBKohGGETpUrcSlhtuOoYwRiBCZBICYIkwAUvx4fgfKdpyNzWWo2xsdyut/ESx/TXQJx+jEC5YdATBDKr0xiiYqBQJlqEGQg/vzny0+VH2gQvl0M4OM4YgRiBGYLAjFBmC0lOU35iFXT0wR8kZMNbBDWlR9xKXI24+hiBGIEQiAQE4QQYMVeZxACWs4bLD9XroSqXOUqvxKMJYoRuHwQiAnC5VPWJclpWY7CktPYBqEk5R1HGiMQI3D5IBAThMunrC+bnAbGk2Vqg1CuSvyyJXqXTa2NMxojUH4IxASh/MoklqgICAxcAVWEiC6TKCBVRpWh8eRlAn+czRiBskQgJghlWSyxUIUi4MdLDKEgjDUIoeCKPccIXBYIxAThsijm0mUSU8CyHFu4TbEs5SpLoageWlGSZX2wRenqcBxzjECMwNgIxARhbFzip3kiUK4T9XKVKxiI88R2Kr2VK3GZSgzitGIEYgQuRiAmCBfjEf+aJQhYMiOOXd4IiA1CYIeQd4jYY4xAjMBsRyAmCLO9hEuevzKcqzPSlaFUJS+JyAnESwuRoYsDxgjMZgRigjCbS/cyzhsVu3w1CGU5IPvli9dlXI/jrMcITCcCMUGYTvRnQdrlagxYrhqEeBSeBZU+zkKMwGWCQEwQLpOCLlU2y3UgLlcNQhmv88fcpVSNJI43RmCGIhAThBlacLHYEyNQrsRlYqnjtzECMQIxAuWDQEwQyqcsYkmKiEC5Ln0UMYvFjapML7cqbibj2GIEYgTCIBAThDBoxX5nDAKxBmHGFFUsaIxAjECZIhAThDItmJkillWmM0+rTE94lHIty00MZYzXTGkLsZwxArMNgZggzLYSner8lKlpW7lqEMzACQ1lhVpZEpaprsdxejECMQKXIBAThEsgiR/MBgTK0gaBkbhsdzGU6d0Vs6EuxnmIEZipCMQEYaaWXJnIXa4z9fg2x5AVpFwLMmQ2Yu8xAjECxUMgJgjFwzKOqYwQ0PGMOFxpxHiFwyv2HSNwGSAQE4TLoJBLlkX05VSgslpPH85rPOANQxF/iRGIEYgRiIJATBCioBaHKX8EylVlXp50SsqzfCUr/9oWSxgjMCsRiAnCrCzWqctUuY7DWAOW5YBXlkJNXXWJU4oRiBGYQQjEBGEGFVYsan4IlPO2vTK2jYi5S37VK/YVI3DZIBAThNlS1Jo5czmPjFOJcz44xHgNlwikRfZf5oPacJj4S4xAjMDsRyAmCLOljI1J08X3SWdvU6pBpz8FeSOpsph5Bvkm75x/gDMZPronyj4HFmXAq3eq8ZpIpql8JzDZ/Cd//Msab2K8plK2OK0YgRiB8kDAKQ8xYikKRkDrbb6n/9G2/DWOZc1zPdPsKVUlA6bPEG7KYhgvOJcXRSCDuzBcyZoMcglbX+DXGc/XLxpt/v0iz6N++L6113PVAwyQa21bz/cG8Kqe1XgJTgDFP8Es59i6zVLmNHi9pJT3vVEQxT9jBGIELnMEYoIwSypA1cfbnjT3L9zlpXvXZD1zkzZ6i2OZ1ZalF0AWWhgQKmVwmOlkQQY3GcSHSAGD3AWugzid8/SLOd88a2nzsx5jdjfe09ExUdHWfKJjl9m6/Lf8+o7VXk7daJS+wbbNWsfS8wUvyNWsIAuC10hSkHD0Be6pOJP11Euua7ZBEJ7oz7i76z7bDbmKXYxAjECMwMsIxAThZSxm/Df9gVN9ZGKb/EEWqnLdvWtytnUTg+kNCUut0kIWXMiCLh5ZmIpdDEOkYLCAskOkIOvqw64xz/qe+VlFxt+tP9PZHqYQ9dYjafzvlD/zreV/nevoWJ311Y0KcmVrI5qFBWgWiksWpuByq0tIgWgKLHW63zVHfN88k9XWUzk/u6vuk92tYfCK/cYIxAhcXgjEBGGWlvdFZOEr8/6qT/evta3EjcaYLY6tVnEL44BmoYhkoZhQjhrkhpcPRFMAyXnWt8xTWeXtrv9YV1sx0tXveZksHL938d/MUz2rcmgWmH9vsS00Cw6aBdfMLVfNwii8ciy3tPHsdBZS4Hr+NkvbP/Ps7K6qj/ScLwZecRwxAjECsx+BmCDM/jJW+nfO9pLNZ+Tv3NaWmuqazJqETtzA782o1VfbolnwTQv3F1SFXYZA3S/a/qI4GeSY6QYOmwlZI7/AksGpYPnAM9t9Y56q0N4u/YnikILxhF5yz4l+3gWaBSELjZAF5eobfKM3i2YBgrXQ9dS0k4UAr4AZsORilCs2GAEpkOUD4283LpqCZG5nbUwKxivq+HmMQIzABAjEBGECcGbjq7lbz/eQr2Gy0FCXXZ011o1a603MlIUsLMwxUy7mMsREOF5CCizdKjYFWU8f9lyz3TjmZ8mEu1t/eHrWyEeSBXPv4v/bC1nwPesGaFFAFmzIggdZYKmlOi9yVeCazGhSgM1EYIOBTcFRNAXPGmU9nfKyO/U9Pecmwj1+FyMQIxAjMBkC004QZK083dc3F5V3nZuxW6sqWy/oj6jMZIJfru8ZpCpVqq85mzONnqXbKmvrWgfV46EhGSQLzxLwWfM386pzrWkMHC0M9sxmZu+rRLMAWZhXbLIwBimQQe4U6vCXfE89q3QwyO3WZbZGrkdoFoQs5HIsQyjrBuP7LNvoNWwvXZjz1DxUKqE1MRMVnuAVGBryRTQFkII2bQd4HcEGY7sFKXBTmV01H+o9M1E88bsYgRiBGIEwCEwLQTB/3FSXMe4827Pn5/rSqxKWfT1CL7FS3r50tnFX3336sFb+6U43dX7+gHo8TJ5mnV/zJy01md7sPDthzc+p/pV2Tm20tXWl5ZsXcp3dO/vua3zRAq9UMnlOfyjQEITGQP9asAwRkIVzpNeQQbPgWzdoYzYJWYDALcp5F5MFSSTfCfGomW+wfMDqhJCCw66rtlsOpMDJ7NYzRB0+kiyc2rrwb5tr+1ahidnCNpHNlq3WBMsQrpo3UrMQFEqeSzKjSIEnmgI0PCczgaZAbTe+fiZlZXfoj/WeDV3YcYAYgRiBGIE8EJgSgmC2sl19bn19ts9e4Ce8Bf1Zf30y6VzHXvWNrCuvZNtVlWzOZub1Jm2pDsdS+znYbXuDk9uV+3rDfs9zzvTlvLONn27vGvCWR85msBdmibrj6w31VRAoy/bmZ3LuWidlb+T5RmarV/ta1w6NM8b4XY7WB21tb89k3F25+xr2+o59Jul6Z77Q2dG1dWveY/gwYnMHSMZFZMEVsqAhCwnIgoEs+GYeZVZJ7INWA8PBL/4iJ/ThgxmwC9FoxWbhZMb12WKndhiLQc7J7ZwppODijL38a+HWYPfIDp7sMJCFHGTBhSxQtzdxzsIa21GLyO88MKimltsvhxzj28t4BaQAsnEKbdHRnB+Qgqc9be2q/kTr6TFCxo9iBGIEYgSKioBMVEriIAVOT3VNU8pyFvi+XqxtdQ0d5XVsSYMUqOWObSUZ8BTGcRcd4iN73JktBTKhPu2jgz0EadjpulqMxvaIapUB80zt0u52fbfCqHx2OPOAstWx2sYseDFwLiRn1zgJcx2Ggxv5uxJMKsQacCy8WAoIDr9h/36aAeUwP3dmc2oX4/JzLqp747una3p72vRW5RaC1vkvN9fWp8xqhUodcrcpmbRW96XNoepPtL9rvHj77214V0WV/dFsn3eYc/uY+ZpnUtXZXfqDs3+NHLJQJWTBt6wt1PJNqYRem86aC5X3tL91PKKbvrfxzakK/d8zGfMSZ1nsMLZ51rPsndW/3XpqPIzj5zECMQIxAqVAoKgEwfyxSvW7c5odK7fQGGcZA9S1zDo3ekZdCw9YjJW1xTY7BrlgLXXS/Mi6q5AF+WTwy/F5jL3puzxf7VK+fk777rGEnTilOrFb2Kqyk0ZYZh4gUcm++uY5CS+30LKdJZ4yG7CSv478bQCipeBlh8dLZutasRzgQa6OQ66eg6AJudrtGfdYpUqcVM6F1kLtPGTZQ+X8dRnf1Ffc0/aj8aDN/M/G9azNL7G97PbLWR0enEvBIVY535pf9bH2/6CIhO9d4tJ/1LLSqXBXZ/rtbdWfiknBJQDFD2IEYgSmDIGCCcIpjAwbMTLkeN+Fru9f5Wi1gc1qGxnk1kED5qFWVh7sgH8XaQrC5lBIgtwxwFq4kAXDx2m+7yHSHUyLd7Mm+1Jlyj95urXq/KDKN2wSU+KfA3kq0l2dc5F3ka3McvjPBg4wuo6z8NejMVkEKWCCbhSkqnC8wIyTFAUv8qbPsoa9l5n/DoamXR6HDGnbP5VyK84OboOckvzHicQIxAjECMQIzAwEIhGEC1ub6qob3XnGtxaxwHx1wjIbGNNk6WA1ETbKoMQJdAOkoAQ4iNCyX15U64Pko42TAvehZ9/p+nq3rfyDnu+dSiUSZ/RH2rpKIEKoKAMjQy87z2QhBba1AnKzQYlmxVNr+N48nA/RrISKOT/PAV78h/aFMkHZ7asO0jzAJHYna9u7jfb3W55zqs/2zjR8vKMTr6UQIz9hY18xAjECMQIxAmWBgIwdkzrGFK3+rL4hm7YXMnIsIsA6BuRrfYU63KgVjDs1sgou6+P8m3IHTwiWIhj6ZObdA3d4EZICWVC7EWuP9s2pZNI99e2Huzvu/vaU2C3o9vswMlT2ggG8vDUJy5JllusYoK8GqzqRWchNMLmfYsSG8JJkxc6D34dty9rlZn3IgnreSpiTCeWeUvOxW5hFdh5TDHOcXIxAjECMwIxGYFyCYN6m7N47q1t0f8UShrJFqPPXcdELg5y5FhX4FSwppIQLjDaam240mJGPtFvIchLfUcuyWH9nDV55exzlnHAz5mRlf9uZQo32RuZVdmpglNmccuzFORfNiqXWphLWNWhShBSIkWGl+J8uEjVS1pHfA7z4D3kVZx64LOMcC+wWXC3k6nlwO6Edc6Kiov20/oDKjQwbf48RiBGIEYgRmL0IjL/N8edUQnck2W/vv5mF/9uZnHNwjkpYqMFzjBzcGFiWqMjOCAz0AtnQbCQZmFcy4K3M5cxbLW29wJz9cTupvqdqWjCsi3ZmwDgZdxxlr2et/83sgb8TCdZATlLBwAtmZY2XgIaMaBLYXKKuRPtyZVqbt8AbDrMn70ne/Yfqa/i+UhPfkDgOLvHjGIEYgRiBGIEZiMD4BKF6nZ9oP3te2f42tiZ2+UofYO1aVOYL4Act2qia4Nz8gbGlIIO6YuEm6hBRnyMfhn5iza84Vli3Mv6d4fsZhHyRufIh9qSfVSZV7C2SPuv6cmXuLpLmVkV9EMPDRdgazEecFtKvRTaRrmCDTYmjGE6EGcaLckS6Psw/L4DXacGM/Lzoa3OYnRSnFecdFyPNOI4YgRiBGIEYgZmBQDBgTSaq7NHvPzFnvra8q7Sn1zDyrmKwXZlM6PkcjbvANWoOdm0VDIIBUZAJqYw3pXYivKQ5lC7jb5oZcHC1LSf0ceysPsTWwYMWRnhYNR6q2IOa/M9LryaX5Ybelpa57Plc4dp6NQdBXY19xNVJRy8Am/nYRjQz6AbH8QpQYrcxHXgBXwa82rE/OJ3z/DPsPDnMPtQDSLMfs5ODFUsXndZ375lJ20crampqallSqmerZ53l+1W+5VdYBp2RzYkCXFRAXfGVp7Fl9bLG2L2O43crley0bbvj/PnzcqnVVBRFqZvGUPzWvHmqsq+vtjKV8hLGVAJN2stmnUxnZ6dcSCXXXZfCOc3NzZXpdLqiosJPSAJ22nJzyWS6ra1NriQvZ7JpIXu17/v16P3qXddiIuRXWT7nttgGDAcOBpN6hMvSH6aNbffSnjv56+ju7haj6JnUZqR4ZouTISHV0NBQkXLdpFfhO9R5LXU+Tf1LpVKZ1tZWqfOzeam0sq6uTtp70vcrbK37TSZjZ2mIafo3afOhJsYCaGhnti6vyDS1L1I5axUz5FVGW6scbZYz41zo+f5819PsZFCBdkLIQjENF2XGK4RAHHHn2LrXTq93Vma59PpHSAtCYPazznAw5dSdGDwSdyDANP1vHliXVCdPLswY62ql/VXcCsilSOrKBHcd0MlAGHQjWUqKfqHEeMFXVIdl67O+8U+7nnWUbY8Hk9re77mZg0lTdXyGbXnUtbW1TbbtL7Z8e4GnzVJqx1J2Z8ynkszlsxE8ayl2sf+QgQpLC07QoAOHAPVSdzs4jOg8p1GehkAeA/3DnBlxmsZ1DK4glx2hDCqpS7S0tKQmS4G6Dd/RhgYuF21N5uympqaFJpdbxpXYCwi2kOF5DkdmV4JFsEuYMu/h+znLWCeMZckBTC914CaLeKL3JFLVXVu7mNtBF2ltcQ6KmU8aTWCdgnLJ0RwZwKSt6tO+7/Fnnait7T5+6pRo26bdyaAyX3veYsGMOrQcvCQf8+m+mpEOwmmqyY+U1dBJmB7ttR9Najelw5XjhiOvNViKxs0/7pA/q6LiRJ5lVhAALS0YietqkQ+4y8NR3hz6WtnHgAwBL52DAFen0/XzmQws4IxSJl5qLo2cCauqpeySg3XPo4wYHI2Qt1bL12c9rVsdJ3v6woV+aedTRRiStPfkZGhIe7ftVv/sWSUTlkkdk6K5jIHLLOou9oGLGXub6ddqwMKhRqD8l7yrNurlKcrlDBOjY0wQTvJsUiKrzX0NDWpRR3ch1uoXuFsBaZbCqVdz8u4qliJWJxNqsaW4Rpjz+zEJEKt96ZxDq9dHEgIGf9T4qhO7ApYIzGl6nONUgANoCA7mtHWwulId1R9o75R0ojiZ+as6ldL3KAF0TPfSVlVxYYHyNhdgsCfbHrOetxSLRTQx+molFyMptYzCW8DOhvnM5Osp5AAvCjkUwRqJF2F9fndzFgWdF3jl1Ak66ANUmoM54x/g3N8j+uPRBwZE0+peVTERXmOCWPjDFMTgCm5SvJp8XU89u4a8rkEexilVB450lEN9JbobXox2+MEN+KFB8t1Q5vosQUWDspsdOk8T/762tp5DvCz65WEMSMsh83cQt3RmEzrEY2DXbDjRe2nYj+B5zJl/fX39VbbyNvnGupUjyeRo7ivJSxP5qiDMECCSlhAf6XxYetN7AegpattjjlOxI+yAJh2021+33lf+Jk4A3UJ9xg7HLAVT0eJcRH6QJwvutE99HHL2HIPuMwzC22w79XzYdCUThTrqUHMioa5mu/FaZNrIxGK9YIbsLAnqFH+DSYxTh+TtxX6kIrXz7Bjj43OM1xy/be1MJHL7IJwluUirsbERrHO/wIAgdX9IYJFsuh3VVZ2DcP9bV1eXtKGiujlz5nB8ubtKa289eV9PzldRdkwQFPWdo/uxVR+VIMXKRnOtewAJUqBf4vcBWtZO21f7Xa1foG21jwpTtJ/M6lcwgL+CCBsmi5R80N59SEtiF7z9cfyPSWDmQQxyFmcOaXU7g8Vm0VLjt4U/yX8wfvAZOPKa5ryddgjtERjDLtrez/jb1t7esx8P42r0dO7eOf+Nxn2IWeUxV2Gt3t5+Tm8duwMaTGvCDzKne75a02InUldoT3HJj7eSmrKK5YhFEIeFnOEvGaiWgUxak9gKyOeQk/YWDHI8YKCU793czXCegj2V9swpThpkgNOcc2AdrPSzh9UnurkJ8KIohqLK6xNSkFRzmpv702ZJZYVZ2pfzs9X3dPzreIG77m28vcqxrsi5/kt0csfbO6vOFXowk/lm7ZxcOrXcJLxV7HtcBd1dVeGAlzEcPqVaIEa1EKOx8UJQsQWRnkHwwl8PeqVWjCNPYax5kkAv+IFxpjnga+dwdce585QvPqM5cz8zcbdlTi4DU2XG3u+7iZpPdD4wWJzRIs0/lNNYU7PaOPoGgrySvN3E5xXUjeDEyfyjGd8ncTFeSo2kk7fUkzDyH1NHH0d1DHGIXs9Gpeg01tf+D1J5L2mJhiMfJ2oE6r36TWR5cmSAxWhIuuvrb2Wy8Hbkfi1iLnk5HyN9Xvp90F+GbHNVtH6A2vSvdEpHL/V56RMG2FWOY15Du34L6XJlOPQaF8B3qffhJ/gLHP66actP8+O7ruv/qKenZ9+wpxJ+obNuIt/X0UHeQWm/Ajk43E015ovZZKK9nD+DdsR6njQeZuL0I8p6O4Ml2obiOerRZ2j8nyMP8P3ycuDbD2H8Zntn96eQbGQ3H1nQ5uaqhV7W2UhkryHftxLtGiLjqvWhdptf1CP8n2dSsENZ/iPU4Ue0TuxiGUw0DcV0yYaGuq/QMN5JHcirnMiOjH7PWbb/HiYpe0cL09BQfZ029n9lDHoLZb+O/ASnFI/2N/q31E38izsHYXhI+/ofc77/IH1K62i/8ltz9rtsSjjHwHIAdrGHAWkPo/KL2tbHe3v9002fjj4jlwSefb9KrF3VNF/7HrsJgiWJlWRmBScGijpEBsA5CJ2SPkOWInjXz2mMrcZSp7mkhtMS1UEIxgsOWgKn0j6kzl44ywA3LuORNCdzwcFFbmYBpxku4e6cK2zLX4eKZi0YrO3Pmser7ml/x3hx9H6l4fcqq6wP+67hQim1J+dZFJ45BMU7XqP9k6rAg4YgLE5/3Zx5Yu+hPLQxwgq1WglhWIC9xyLBi0pRISRK8JIidCxzgTI7zZbKUzSTQyxhvEBFPFBRYR1SzhVn9Ae2IV50d+Yr86orTHo+U6olyrKXc3PkOtvRa7n3YW1/xhzkLobXRY89v5AtLdXz6RjuAI+38ncXdaZlsKLnF0EEX4OdyHnw/wEzob9nDfPRYsx0WeOudXPp5ym7pWHEEnl8Yz7b2dn9h0PhWE6o83O5X6T8P0w9vH7oedjPwbx20AD/lnr0zUFCNF40VmNj7c3g/z66/Z9HrIaoZTGYbhd1+rsk9ucdHT0yYwq1TjqekGM8t+vrqyAG1s8pY70ZvDYiO+vUY/gs0iPilw6Zzl7vpG3+k/bMd9p6Lu3woybXUF/7IGncWco8RJVtMNzujs7uTXwvqM8mfIo6twUy+gtA+kaKbPUgtgWKF4w5lJERkvwM8X7Hcs0PKKM9BUc8GMEAITV7kHt+mDglfyzZ/2pXV+/fjginweE2xuqP0/+/CT9iFxPJDeL3Epn/lrYTf93e3n5sdEQOcTNBF9Us9gPGvBIPnRwBfJjDhfZUp9Te3q827FOWOWHc5InqvvOtYQfnzYFRYNtx4pW/n8qZ9Crdsyjj2VeLeh0jwtUpSy9nwGtAvd7K3+EchoUoxw9iHPRCqrPxlN56JD1a8DC/GXQtVVPb1Ovbi52kXtyf9lYnHWcteV+H1mQFnT8zisEY9fAa43hJyNg8l9nWXAjOK+iyu5nBv8TBUXvSOWuf+VrT3j6tj3NzxImqhtbzYc8OGMD3wkkSl79HDEczq/72hZk0eCnUaMpwPbZazqmITSzftHOuwhFsPg5Qdi/Ylncw6Y22uwg/YRG8uptrG1NZh7VktcS3clezhRMSpda6nr8S3FqkTlJJGZf0Yb6W1DU2Vl/jZq1fpp99OwPKcpmLRG0UYQSl0xDvsmPnV1EPbnAzmfuZNf8/Bk/ZrRLZZbNZzE8CtX+UOIY1DjTaqh7XfSfEllmkWVwIJoN5bQDY32RppYYlkC+gSTgyhoBWfX31q0jrM5SD9BcFlcVgunXM4n6FqJY1NtZ9sb2964d8Z1AtngtImZt5NW33PQjM7NNUCF6FYJaPdIPxU9zmevK6mt5lfVNt7TfbBrRAQQXLJ55x/RQwQIwbZxFfkMEE0THERHe0uTloRd9IYf06sdxOnEF8xSq7wTrIcpi+jTQ2YMuwmeW6v2TJ4VHSK2jskVwnXTflJjCUjuAgs8j1sqPu3Awx+O88uUOeFoLBYNgrmBR8ynhe45w5lV/DJkPGnWEXsGc5NkBO9RPH6If1rh66WjjL4UjHqd37OUNnX7q+YU/uj9VLzDCOp6qqmZkG19wOR5bPl8EwL+BX/r4nNhA531lutDcP24LjTq11XL93pGFLNJOCl7AVmN/YOJfVm6VZK1ibWpdyFKRAdmHIGikHF9FbyCAnWUcjoLg2GcRl+JnAMQ2QrotDhQJP4EWHzQFSvrqWyHKwrZM824+p/L5cb9Oe/vs0t/LljjH7PKMHrlGeIPJLX+n3BORIBmH5+0HblxrrWXNaSq1ZSJqnKqrVMf2BthEgRdOOvcBFW4tUU0vCU0uyPhdFZRRaArWGGetaAFpGJRIjqMDJp+QfLcLkeA0Eifq/bqytvYVZw8eI4Of5gy1PXDxRE5oonKRITq/FuO/zZLmeGcH9RVAVR83IUDirv67mLRjpfo4aKUSuWM4hvncq7XZCErZCEi4yXpTyIKE/AJGbJmsqYQQS+Wl+t1HWf9BQU9Pb0dPzSJjwE/mVAcZ1s79MW/8QBQnJDurtREGK/m6gfLRca/8O31LzGhpq/gBtycNFT6jMIqRMC6qZaMiWsFnk3dgZvI8awqF9BUU3ITqDfUstFfHtGKmubGio/YZlJf6l0CUHJjUidCTBR+JHv7PS1/5WzPnuKHI/yBKN+aDvOv0Q6S+NNCwdbcgxMFgOHjRExsQK9Coa1FUMfj9nc7IQNuCo+/XeTE96b/q+xhcYJ45xQuHJunu62qM0u0EjuZ0TllyeLw2DZzaFBTUEABKzwjZqrZVQa1i3ZeeAmo8xmyXFJCU1dJjSJVGH7PUCcjGMV6DuWU78yzEEeT2JtTLbP4QWc6+b8faynHOQhaJjaeOdrO3pluuXQ8+SBpd8nkNu+SvImf/TXJvpRnvk+ktVzlzJLHkd61Ks6RmMJznzwmjGQ2nhcgPn2PV77KcFiTUcmMHoVpaavkC9uquU6QwnOMGXwQEYzZH6HcvyMGhU/4u/gmcXEyQ54SvWIK+hw/wsfxx/XnR0pNzf6xuPZRD1l/wF9ZRZ1RXUjd+jStxU5A4qyOsASTCbjW39Pmm9jxncSxOCkMdLSE6DNt5vIO89yD13sBzzCFkaLwN51FKfbUT7KPxrV2lSmvmxDpAD92NomiEHpnaqym6gjNQmmtUXjHFrkeNvCiUJhZaG7FRxs0yUtH5NSdqewthc699iD7Qsrfw9f0GncglBGJkRAWpgohxwbkicbB1DtW7MrRAGMYY7krDVXrbL7ev/Wv2+Pss+RmEee6nrwvl1WyffQjEyrSjfDev1vVUtzdrKLOEIQJn5rkHdugYA19IZYI2s6gPJBzvQcUlBlMTHCCN4BdoY0mNQk/10bDcJtt7cxFJKH9tAj9pK70sZvS9b17g3d5866vj6mEq0nSv0+uUxxLnkkZxn0XO0Zo4cB42ES9Od3uoEWgKM/tZiyX0VHKAx4LqDIfPBC/9BRboksQIfsKxwLbPJL1Bp7ypFg4gqHoy+kUH5k7D5A2gRvh81nujhghJKsQT3MdR97N4oCfwiXg163HvmzKl5/MKFwHgwhe3JB0ntNaUp8QFEBrJj7qJ/YlBQv89fIWvXKe3778Sa/neIZ07poBqQPd//pcyoR3ewEfDTaDc+XOiSVb7pziR/snXP93Ifpb79Fn1pRclq+TigBGXEkhczZgxAGVkGiPK0TQiy2ZrXoZnGyHEcgYvzuEHaSmNj5WPt7f3HJMoJCcLINEUusZJnoAseI2wNX9aj5l7PE1Tr1mnWqA9gjbz/qobGPemv68MY2R1NVehTUVTrI9Me+V2ul27q652PgeGytLKucJS3zrHt1QzMq9EciOW/rCURhEOVR8g7Mo4JvxeoEhuKW1CSwuQUyuARHUIVIq1heQC1PciwxQw7ggM5zmzwc5CFr+tDbEc8SqBTxbyB8vi9qrJZN8wj7WXpE2o5S0ZrOQoavPRq45kl4Fg5ICCyjpB3KB+TfbIDZjIvod9L50C0nwGzsiIHkhEpU0jLIrQtv4ucz2J5fz50BgsIACY5jJQ2Q8T/SwnJwVA+16CJ+wDi3jNoIPZuvkvjKrVDkaXe3dRU8/9hwR3ZWAwS92pWq38XSjVnoBWWWuz84x/o6Dn+3VI/JdT/zj/kZeGzCiP236DMflPIwXTlWOoM7Y0zVdSn6+trLnR29nybR8Xv8CbOoIc2rZGt/B/HW7BLaGLv0d8O9icbjHH+K7HcKzHlTRBGJztyMEGrkEAVzLp+sNb/Gk4OvEDFf1E7/r50xuzP3NeAxb85lrG94zVtPRfCqNalP+66t67RtjAwzKllfk96JVsysaDXq7Hox2DOYDBHl80IiPX++EsHozMwxb+lQ8gN9ArSw9p0XIsgMIsgWHchPOu8ckiP2ccx0PsyX2vaz/7eowkrdVwtPNca9owKsevIGmuRy+FVrKWtSGiWDdCskN5Kym2ex75HqQyBTIMEJjIcRSJUI9K3HUcLU/4vFGlZusFivA0534yAfzmVQhrjQYCt91KHStpZSJ6COqL02+mg/pZDVt5LK2PnyJQVygLfVb+IGJEIwsD5AK4swSyZMolDVgTaPYdI6d+qrq7+t97eXs4qiZ0gwGD8Jsrso3zNa0tgKVGT6k69XwJh/RyE8yW0hrItd8oc2xAZ5szrEeNGWmTJ06VOMmSYX2FZ5S9kWSUyQRgpqYg9NFuX6QWDECe3qTlQrRtIsA+jiuPMuPYnPWt/uraB2bI6klHJAzUfOzduo+i8t66pynZW92MglzR6bUKjIUio1US+nLXxGpY7KDgGORLJRxU+Ut4JvxPlhO+L8HIkXhIdla+Bang9uF1P8mmw4kAj60DGc/dbJzB0/Jp/hLO1DlbdE+xuGFMCMV6sqbAgTWZZn++vTaElwLh0NVsjl8MB6rG/IBwp86+oeI0pTfSHzBpXQZo+RPEmizQW5WjgOTJOxQ8sqotS54mTHUDmXeT0H/hjv/tUOFm60lvIhxxGNBUJSq2ZB/X+NGneOlVpDmdM6zfx/Sv8ic1HGGdhlf0uhL+5SM1ZwJZDdlw6T6k/kLTC3UD9NtckbfWqXqX+LmKM0rDL1xktbSPvWfec2trVnHL4aeYd024vMgSqlBP90TWc+/JptIYfmEqtIft95zA+yMV5wYaCIZlK9TlQJ/U6Dt+6ljQeK0pnOVJYaUmSyLBqXU51suSUK82feRMn+Z21E9YLOp37e7zePzLsyO8J47zKTqj3+1l1tZyXIAZzEre4ITIy8Gvm/3+xNiZQqa0gvysA8g0oRc4lUtaLnAnxHXL61fFyW1Whb3IS5mOoKVaJZgKsxMA0GEYYcIeXhsYLH/U5xGOoWKJGMTIcmg39Hnq8Kwcq6shXob6zq0O/QO6PMaSehRn0IiRtTNWB50JAWUlsK/hjpSeak5k08W1iX/3qzs6+7dFiCRdqsPHeTLpyUtrUuYGzDrBRnjo3WP5rWaNfxhr9/jApM9O7ksnDr0uZhwk3yq/U66NU70NEc4qJSTu/M/yu0MZq4XMJMmLQO/lJmKPivegnpANbauutPBSimfdAOiKSzIjv5fdVq6cQKt9zLSo4+vW3IQeyi64Q101jlzX0VlpplviE0DUR52I+mYyFd4PyvNFxLDkj5xv8FSZhHiJImkwWX0tKNxaIRx6pveyFOpkynv9KnhSfILyczMA3QXHIAp7Wil2jWsjnQj6P82pcgsDguAXNw6sDtoHHKZv1Fl9lPgBEnv8P4CWegwEIJYCaD2jYXMilQuMTBEjUteyZfX2A11QttVCQ9GhFayjcsYJNhLm7gH4dEw8OO9H6xxxI8zTWbUISWpMVFUEnavf3V6Yd7ibQ9gZoDWo783owxegwsqtmsLiN0FNCEAalnHK1K3Ww6BOJPBGvpoNch99QBAFyIEsTy/NMYyxv59DUPERX8J+ubz3HUcnHjVXZzYU3bn9/f4J6w8FQ7lWWZd9Mu3wLEdwwViT5PBOiSX2/ESLUGMVYkfA/oZOQo8brJKJ80pzEj5AUKe+CCSH15hSTlb8lrrz6CJaybkNb9fb8fI+ZC7ln5Wky8FNmGrv5wZ0fOkMd4sI2NGHaWsNk4Q6EQRvGBCqkI260mubDlNUPKasDIYNH8x6cTcT22Cl3miUNpae04Ustkdm/mPrTACdmlZxAJP4C/1MIjqxaTGFyEyY1hBfGhNLEJsaLW6AELxasZqwzJvFaGuGSiBmAD6h/x/jyf9VU1zx66tTLZ3TQmIei7OHLef520Rk9zjZU7gTQH6LRRxt06QEply1DkU/3J9KkqSlChvgaaKJCd4IR8yC1LjeYbtHSZCYj+qlVYWSS7WC5rOIIWkJFaMmkyU4scz9N6dtdXd0QzCF30SoHGip1dMWKFY9fOHduB1ei/x7J3TTkM+wn9W8+6a4g3IWwYdmn/3+ZglH3zSLCSq4LcuCdpHd+G5EUQpxFEE7V199izf7ZfASSOz0yGf/DlDgz/QgFJ3MVrb6PfdU3KisrHzt79iyrNhe75cuXV3R2Xvgpt7l+gIrFRCRYcrzY0wS/RCqq5ErOuvl1vmLfMlmfPEFkeb+akBxIm+sk31nqurQ7IYkFt78Af84LIa7qKSUIJBi7iAhQMSO1mojJhQlWLLm4ZoOjQ5kORekg6Fh+qizv813tvbvplCaVnz32L7Ke+DV2dFyFZ5lxhnaDDelqAko7EoIyLY7OeD+F8DyKo6MMFJJ5WTppYofKVaxfYtcS7ojXEJnAhsg8R6+JNtDIoEm6WgaWRdRW7CTU3BBxjekV5rF0zBfjPMxk6jgy3WcNNfxYSRvrxKbp66nKqj8fa4AZneShQ4eEjP0Hpz9qNF/f4nvLaD/5/CbdBDNcWfYSdXwoJ8fjbtqk7j10qL4mVMDxPGs0IkbJ4FmQg2Q8ZNvO/USSV7tw09U3Q5I4oTNad0JpP8UlZZ/v6urcNl77P3IkOHTuUTQAZ+lmmulSXxc2kwPimV8mjm+FXfoKm9YE/lk2Uds5bmAHplWHsa7q4wyCKnrOpfSfGyi/G0Cx0N0f8+vrK1qmjSDIunhZuvIdiMsSrmIJhSV3M3FtjtJB0FjOGO1/sQNyEEYejI3OcaLdN1nKeh3pRuxguVp6wCZgclYSRrj8/HJSuPoBg/Lfc9T2s4lE4syCBQvSmUxGc2eEnNp3hdHunSyDyJYxWS8vlhM92+PQgX+xPP2klfKOcPd8r88dzjgOtMktxa7mFsrlV0hwQ/REg8FC6kXeDnXybeBRmXeAER5J7btOMvkX+ZCDEcHUhg1dP9y5s+5HaB4kv6EdAyNh/GWhAw4G2LZNtDeF30TIoHc1x2y/H3Ei360hIpGfIywV/CFW8BDHvBzHweh34zNSG0TeDsrujzo7OrflkxoD+0E0iF9hQBWD36Z8wlzsR8u15kKi/uDi51PyS4j4P0IIvl3pm+1nOHCP36JdtrG9wRjd38BkSY6kZyeYKWRpoorlmQXTRhCmBMoIiUQksBFSmiVBirQkk7KsK1kzjDTjpHP4D46tfSwKojU1DU/1dHcdJOz1UcLTHdah0qxlbXrKCQIdwY+MZf1+e0fHjiHZ6ZSHvsrstn3dOvX8yZN1rQxeX+F3JHyHIhz6lHR97X1lxVWrH9m2jYvAghWcvqHXbNlVx9etW/fMiRNHj1ja+hodVbRlIwoWzUTtUMT5fJLWFmxxJFw+3of9MMh0EexPRx4zO/xyki8PPaTc+nr9L2hrfpn0ZbQP7eh35oUOVMQAsLDanKU5tdCw8yO6A0c2npk/4cyAR/KNBWIiRsmvDVtmQ/ET9qcNjXN+0NExvJQ49Grcz8WLFz968sSxh/Hw1nE9jfOCPFK79NuQ+08gG6GXhcaJdtLHJJsmr3+pbefrbZderOShOZHG/yBbfF9kl4C0m3dMGun4HriLz5krLWnqHTmlMRVSD0smM4VflnKVpVCUQtHKMSETj2AdO1TZEoglYP1PBJrERmPsaE+cOMHisuF+9LHfT/aUAaGCmXshTH2yJMZ8j7wnsaz/Ikf1DpODsTzu2aOyixYt+Qfqz7+M9T70M62ex+7+C52dvT8JyME4EezZsyfLIPHPDBZ/N46XSR9LnYeMiAV63g5ywHEj4VsLIZ5vapq3q/Is8gAAQABJREFUPe+ERnkkzV08GmZJo17n8VNHsq7PI+J8vGi3tvYXaQK/jOeILWEwGaO/i3b4r/iVd3vECPsN+I+0PEO4LBL/9eDyAT/zc1I/pd+g/whdWYLqhW0Ms+tb8kutOL6gnj9ykt5Xx7p1cWQK8h6DTDQkwYV/I1/l/V36Q842apkegpC3mFPsUZpGkWbEUyz59CVXJEKVy6kDsPL/TYN9gsq5l37qKJlq5bcYG427jknHfDjredsKAkBLWlL44R3yObbnFbreFzphsPpO+8CNgJOGlc6Qie3/Qdb8p1hjxEq5cPCn+dO2tu4nx3g91iMPVSxGdHIQWETHHsAwIcnn35LPf+dPBvsXkPkUnx2UbprPMRc28csb8/1Bm4IwyQ37ZWmllc4jYj7pdLSKtCwyLEABX9iqK9def5K/+gKiEQO+PVgKfplZNVjk7ZLYV785KIO8g1zk8Riq8EjaQ7Rvj9N/DKvcLop1kh/IK4cD/jzeonUck8Q/+jXYtlO/7m1t7ZP6PKmTOz5gPj+a1OO4HiRbetm0LTGM2VLHFTZ+QQUJzXSnBLUiFaSo6lpaWv6Qy0KupbeWM8FZj9TcpcG+ZaPpuEw9TbGGGWUNn6jPTB3v5aqQv+IUOtmZUIiL2LEHSWoO8LILSTxs2GCw0+b/ES5v9DkZ7bmO9rb9hNkSNr0h/wy+Ryo8849Dv/P5XLCg54WTJ2oP4XdzPv4v8TNwwtclj8d7gPHpT7gEifrgLWGGSB3xa6kzMvA1yCe2KvKbusWZGErznXVaY47YvhItVGRXU9OR6emujaxBYB6biJx4AQFRk7O6YH6HNoVhZ/QuhgETOwDzNfDfHkYcbAEWU0acexAtbdJ9qquzi8EzvLvqqo6Th1+s3U/St4YNLfLy7w7kbyDPkdIPkyboPLpo0bInOzr25BsM5Z31PQ53ejeyhiYxkj8CrZ02gpBvLqfcXwSV05TLWEYJUvWitewx8oBh3Rkey9+QsxcuXJjCmLDCcRJcSZqtYQ5b57LuT6dSB2nilETnYTznPVAORTzyExN01JShJqoXBWe3VOgGODKCsN8BnCvYE6LSztuJCraxvnYHrV4Ms6I5rZ48E/LuCVniaKzXLzIIbY6YbNiy9QaXXXYMZlJjD5E4ffo0dShTmck41Ux1qTse5EDVad+qRhd+uL2nU8hTZHfiBKy2gSWyiJkk4SmtQ4MZxSZR/Rrt6Ocj14mBiETv+veJZMW31YBBSggcPQhrsPMlRJhBrwOzpqf5FQl1Me6kbrK8aG6Nkn+SX8plYOtJ/9GJhKdgI8k3HKcso2r1bdEEDj/L78tOvPXwx4QqijMrYoIwCrey3V0Rtpscla9S/Sys5k8qlTd4noHMzNom9T1NHqIw9IJE1WofxoihlwsgcweYPZN0hFKjh+LfM5HkNuqcGKvIlCu0m/T8j0ljNIMdq3SupTQkxXCfFKIP89FDTgrB2B4aampup1w+TKkUtLyB4D+zffN1CL4MRqEcmpNbo25tpj5Ro/y8p9RjC+Y/N7CKFb5uor1I+pa5mXgnJAhjpxviKcsgRtmh0+BgrzOZdP85UopEEAB3+mwQimbcFgLnvLwWcUacV3p5egpfffOMuEBvDBrlKlqYnJUp/bo0C3RKcnjQQd6Exp3u9KR0qZEc4TzPk6WC0I7dKQUMzCZvY7fQghU3gIe1RERwA0EKCRs6J02VlYu1rT9FNbqiEKkhB2c4O+JLrWwdDC1EcFqjjry8gOz9nGh5LEK6w0G4COmQEI3hByG+DAQzkZfs8k6K9o5W7GTe/gc9sl23DxmFIERydDV106dBKNMumQNLIlWWSCUwCwLJZVkzxNlsbUqyFajScZwqy8pV53JWjaia2YuxPmIfEWSdu6CmsM7I2qd/Igrm5LFDCEZE51muORslLEs46ShLOCIp1ausatimTZsSR48erbDtdGU6bXMUtNQht0a5uh5BqUuRq0LkgGHLhBMgUxfOn/tNatKrwoYd5Z8dI/p/d3R3cRZHeIf9QyOk6qrIkBmMT3VF68DhoeHTlxCep0/blpEL3ZJRYiDcWpZBq0ae3BolnvHCSHuFxOzj/biG2uOF5bnUqfaoSkPUYclpIwhl1epHIFyuclFPpqwDGQHHpF/LTa558+ZVu67b4PuZRuYFc6jkDWSiUfm6rqenq4FJXoPv5eqNp6sx4MFYTXOwj1o+aUbLxIPMdaijdIrhneXr/ujmlCZjEl4kTQB3Y7iRaYkcIT71zsH4TNSyTVyh1wTkTayvNHjKrz986KAYPDZ6OauepeFa1qBrWCCGJGDPYLiBcOplDZ1ia+vZ11Me7yVgdMNIIqAu/mc2l5PTEsOujQcy27bNiZsebTSy68BAsDdyaAJyuFebbdmyNNIULR69qK+vr4WwR6OFzytUJM1dELOcsghDiFgv7WkjCHnBMh2eImM5HcKWQZrTjBenhzUxi1uCJgCDIbUgk+lfTM+1kIG/kU6bRo/lumEnxAAZqKStyL56uXBnxGQvYvOZJvgtY4W2PxBRmY3IrR4Rnc5ms5ZsFQztMP+MnmxhYfOSNZhRX7jAQUXuMs7pX2ws6o/vL1KWmesrSwYOSKbfICSAulTF2FhJ/ZHbUq2AvfCwkAzmJWSRPNFeVkJkPoW886NGSf6FHLzoeeZLHBAWWvU9lC7VcQnfI1/rjp29tANOkYzuGNy7G+prhfhGIwjG1GrLYydGiQgCQKOBy2tr4zgoRCJvg3FN7WVN42SgzB5Px4SlzCDIUxzpKKajZ0Q1Ocdx1BoMSrmdzV+rfXOFsfRiWtJ8ZGqg86sORAt67RFdN41tNjhmrHJKYngn04Ho1dtlxhe1Mw6qSniBSxjiTuW0bK+7IsdtkRfOn12DAedqiMxizrWXeySaIZJ1bK8dIJJDYgxWn5lai0S7lk73fwz5bxzKUrRP0wdD+EZPT+/j0cIPhvItabP8CI9oUKG0Ee1B+MAXC01bMmgQolVRSKMFqRSiM64TIaOqaiRznrEib6NkUhC9xZP2tGkQytZIsfAKN25FmaUvCm2gecPCEaJLUQnerI13C2uf66n8Kwk8DwGYzQ3N4qZMnLzlLrZHZl5RDfci7+UkD/CSSW5gHT+jhaQ7fqwR3iznRr/utrYN3k51C+seNzIsrKbGLGOYaSioJ40gy1QHyfT1vY3zc99BU4lcHgyIQKU5IdP6v8gftR4GWYeMCaGP5iSgLJkV7lz6kl7JVzSHClU0TiV0luVHPl+jULGmjSAUKnipwtNyZv8IU0TwpgIs0RhwCc+rjOe+wbLkpjKuxg2uN52K1IsIVvGiipRxjBTtqDOlQkQnXS7Pi9wDF5L0RWE5QOm6zvYLb2DWeifagQ2AOO9yae3kfSPr/Z+AHDReBEqIH4NFuJtJ6Ve6unoL3nZMjYim1h+SOcLR7ENBR3xiIqP6pXZGalSEQwkiNgglcyyhRl4mKLTtTRtB8AvQdZasJIi4XGcRUStvKbGSuINNdyVMBGOxTdjxvoMB5vVgsKaQ2U8JxQwVNY1W7Iam3Al205Asm0SgddPompubazmh883G994O8rdQawsxjJvGnERLWux0WIr7XdqPHOoT2VF/2jmd8o/au8Ldmjpeguj86gqsj0XprpEjU1iDLPk9GoXksyCIp40gjFdppvs5J7uW5VgMyy1LuUpYXnZjbe0boGwfxLruDgbVwK6ghOldBlEzPE4HM4EiTBe4c+bMWeS66fdBMH8JGVZPlxzTmC70zLybcn9zgT0I1yyYv0l2dn+nWHmBbFSUQ3eLHLmghkbqYaEXWufTN0WKvQhYxwShCCAOR1EIVRuOpBRfpqt6TZaX0hAX7javvpvh7B6S3yz2BcVwQUu5SNVN4y5O1MUQL46jyAigVl/mu7nfZXb4SxRz0bQGA1VoqN8l5oF/RZa+ONE1NHBaolIfKoRgS37JIhcb2d/gIAyxuSuKo/U5QyhGjLDA4MOpFmRLwZQy0hkKw6mX8Zdp0yCU61p/GRtPlmc1opUXW7D6+pq3smj9OQbvdYXGLWvfdI7C+8QSuBVpZe1ULpYRw6Q0v10+V6GluBl/hSY3ReHLU8s1RZnPK5m51dXzcsb7DOX6Too1nxneuPEGA2RQNYwYxV1gNs6fHH+ru5l9yml1A2vE3GnAezknoSxcc3PVQg4D+zQt4MoCBTpNO/pSR0fniwXGMzp4oQ2uOASh8EnOtGnIRgNa7N/TRhCKnZGixVeCAa9ospVlRMXVuTTV1t7ia1MUcgBcR+mBdvN5kD7gRTQSZ7GX6+Twmx7f9vst18pyhJprGf/tdIBypnrsZgECy9mp0Nne+tuQg18pbOYckMteCMZeiOQe6sgLyvjHsJ7vYP9Xp/F1r2V7ac+1gu2f+L6FEatcCELCd60PItNdBRZpjnz+WUdX108KjOeS4HS12chr/0ItdPRjvy4SBqZXyMob9nQFaSAukqXMfkwbQSjusFJmqBZZHKHJhVLtIov0cnT0QC//KOybzPqwFvocs7LrCotJvQRmP6Yzf8hXzkHP849zI6RoEMbcx99YXxPpZMICZYyDlwiB9vbWN9Pjvw/VESdlRnNU6izhH5d6xACwjctyDicTybOtra1y6t5Ydd7m8MUx61c0CQoLxc6fNyCknJYYWf0daE589X3Hdf+CeKKdvTFhNjTb96L1blIAHPgUOW8XiWVBNMYq0Ys8jfcj4BbF2G45XgLT+nzaCMK05nqixIs44E2UzKx5Vzymp3OO9Wt0F68qDBv9n5yT8C1jJZ7o6Ow+SlyTN33ZFy79VOxmPAJNTU1LOEr7k2RkbgGZaWVw/BtOffgXnUjs7mxr68ojLraQlodj18IKW5tPo/lYEFWiwWWVQxy9+eWOvr7TUeOZJFzHJO8nfM3Ev2JCD3m+ZEJy8YFYeYYb9mZM5/D3WfYlJgijCrRcr3tm/Jp8oBuVlyn5yWXqxUiH7YxXcnXr+4lLjkIO7QZnO9+zjPliW3fvU0QQRu0X04PQiJdnAOPlfpm6sKkAcxJsC9SXE473d60dfadC5LIs6pBcHNTb23MPebghhOxjeJUz/NW93d090pZK5c4XFrGuIrys/xc0TWGpoyCiQX2btRrIaTOuIOGiDCyFVbBLQ8dGipdiMjVP/F+ioV0VJS0hB7hdRltb27q7n+B7GHJARZzeffqB9PF/BSPQUl0t9wu8C3IQdTbPhNn8L63tv2htDUUORHZNnzbtJIGrBd4GZ3878kTFANMNOmdfP+Ar+x+IJ1RbEiDyddj+nCrEMBhlb82KFZFPMR4SU4otuhErlY1tjmGI5FC6M+Jz2ghCuaKDIVtZEpdyxQu0CsaL7WgNwH43bS1SB0u4rPHU/+Rmt2cj4WQVaS0zUuJTGag42p6plDhMWlwW8SpGt6vDhBnyO0gyt9m292cduKHn+X4yc+em+Ok7ul7kbGio3kBr/CR/BZ6WqHdo23yN9iR2OyVznK95gsij9x9a1Z8/Xy9ahMhu+fLlSfoeubkzkkN4OA6Gq7PUTRtBKEgnVMrCKFvBSpnp6HHTsUZv4MPJuhgl6kiH2Ax07Pp5Y1nfGY4u9JcCZhCh04oDlAgBbrNWb6G3jjRzlomgb8zftLX1y6AV2nGrYQJ6W5CqOnSiIwIEJNvYn+JRQVuDwYHTEv0vt7f37BkRfUm+UlTHibiAcxV0HeEbChEud+GCaA8K2Hli+slHTBAKKYQZFbYoA17xc1yEUbj4QhFjUeTyrTvYQhbJ9kC0uhTZDwuc7RTtEJ2SgBxHOikCWO03Ug9unNTj+B7aWVr4/vivJ37DTZfVNIboquqJo5/sLZo3/900hDfjMZIWbjABOJb6i0RFz7/zuyhNeyLBabNneB/ZABIyWGkbM2+iNCZ7x9aMOWidhGhEdPpkqqsrch4iJjplwaZNgzBlOZwlCTEMlrzBRoKqcELFhalmS9S1SMLJzQY/iyT7UCBjFqMoHPoV+tOYRCGdcuj04gCXIgDBvIqnhdyqd5gBS2a0kZzrunJhT+RtlYSNXIcaG2tvoxn+Ni0hcvqSOC3gKZYW/krusFq8eHHlpk3B+n4pxwiujVb7KDtSD+8IZ7vKuyJ8yJdDuLZZBG6RND+B3JyRcb4gLcjLspTjt+nbxRC9Py41juUrWalzHiX+Apdk6Igqurs7V0TrIgKBXWZPR6OILmGWc6hOR3vriojmDxIFferlYsMg2S1PZytvJSWRoLMPLaB09IQTNXHkcwws467CSDZS+iIyMkTSoFVjmMnOq8/Sfq4MnfERAQQ1UKjwfes3M5l+lenvd3u7azMNdVypbJkeZOzC+LENOc/i5wwak/Nt+W3/HJHKJV+x7zNPk/JbLnmT5wM4QkFLKky7VgM+m5/C1xsRkarzJB/RAueZx+n0Nm0EgaN0yxXUcpVrOuvJ+GkXqEHIZrNyo1vz+AlM9sZwn7vTPZmv8d53d19YTjO/Yrz3eTyXihwvUeQBVEm9aGtpQfEzABYS3jfqFgaLyI461ERgma3nTbnvxChyp21/iPHplZETHhEQLeUa4lotjxi5yRI7GLRxkSjDFg051KiHobALG4UO4/mnOBjqJbrxF1xX7cMG4siJEyf6R0SX11e0f0/AziD54Q08ZVAHsE2EDYXbSMGYGGzmwKWRj/L+TvpZcHlssgCQqmgJTBbxFLx3klyX4VEVvLyr5RRINQ1JBG1bqtnkx3faUh3F/4wt9WLhK3hFaNgjk0+n07W2paoitlHKQXoyMyDJyIjz/O7nzKu1ZdVEn0HI7FOtzDO52FuJEGCgmVPA+CxDTOQ6xOFMdRzOdFfUOhRAYswisaPohrHmC9GuurrXMff9depfJO3D6HTozype7tRG9G4jOrvg6QDQacJ30v7O2rY62dPVua+xsXqb7zs/Y6nm8Oi4x/vteXo37V8MQ5eP52ei52B+LVqUlt7eXu6RCudaWlpqcrn0DVH7HsId1sp5PlyqM8u3bM15lEpxRi6KF7JAYV02Tuq55FfyLeyfAj8FdX5xIgC4OvUY/k4KQxjCS+IptRvRXEud1ITxD9UT+eQKJO420AcmDDDJS8fxk+AZyfJcogaXJB8y+wrtpINgBsH2SoaXiE4GBULfTPDIcURMOg52EQLRT9ULytAosSGI5Hw/90oKvzCSqFWzbZu81eUcLNZotPkdql8hdheR8iuBaHcV5Hke6V/L5xuo/RxtbXFMun8fmoVPNjRUbcTbpKMJhKidsA8zy44mi9ZzE5Z1S5TATE42kKrYroR2Iq+29I/b29sL0jyFTniKAzjKN59Be7DUtrQU6EayfY2lzTzH1spFs1CqkwWnU2EhpID8KpdjUejXxQL1OSrpDq7c2G5Z3sR76W3rx76LOlKrjTAKtuepDdSVhQnwEk2M4FWKwZw0ShEt4k/uhAwM1QfL6HNI8jwNZDuquR2OsrZPHsP4PnI57RdCSpHDor6uJQXWMsM5ljd+jsCculcYtGgQb21srFzS3t5/LJwEse/iISAtb9LxaNzkZKAQwnj+/PmecT2N8ULCZLPpD/AqkqHbUJS0b4hysBb/yNCziT4tP3ebseybJvIzxe9qaUZr6RfXMOvcAud/A0Thx+TpH7u6ug5NIIsMBf9KG3wnn1EmCg5alLslDv5CDSsQsl+C3VcSLrwzJs3yyz8TsLDOI3zKUxrCSXy8/XGzVT3VV9/8kPbMEoa4K6msG2lqDID62mGywGAqi1Iz1clZec4QKTD6DJX5OTqFbRTvDt/ol9xc5nhqee955+6JTw6r/Gj7MfM2dTJ9a/UjtnYWK8++0lgGciV/sOkpIAtTUQZDpEBID1idB6fnWG/bbjyzw1fWi25WH0/e0Hou9Uol64eRHcZOXLnsiXGYaAJCu2D2p/RrCfjX/OVdQxnQl/qe/zECFHTQighMPcJQzPklvn5FfperC0hm3giVTS7ykpiBqIf8RXaEXeK6aSH8k64pj0wEcvAO7KluL5RkDnBU/Qus5X+Tc5qOjExjrO/Gdl5NdlOFpjtW3AU+42qD4A6IBXS5ayHPW7gb4lMTkQTPU4/S37xAGQT2D+HT168mjc2kkfckgWWhdcZ3f4HeLXRyoj3g0IxtiWQlk8lQfDJ0WtMdIDBS1Fulk2+VmfRpyML2vvqqhz2vcglT4istB6Kg1PXo4K/hyqt5tsyUIQvB5LsA6akQ4UsmZHqIqobkRf4zBBdNwXY0JjvQlBzOuZnj1X29rQP5zz9y/W1IxLeDNa+z5gG1s/cUZMFzlmBFvZxsDeI188jCMF4DpKDVUuY51JjbIVDbfaVfdC3reFVF63n9gejW3qNR9jyvm7rQTZurHv0u399gfhcd63V0rDvyCdPY2FhvjPe7dF5i4FSwo3MXJch7m5tr/621tbugJZeChblMI6DTPl9I1inDSv5+nTh+xl9epLehoeYOwtzDIB15e+FImamPyyHLv8mzz/I30WxYes91UQa3kemV+jsdvBx9/WbydZBPydOYfb7YXTQ01D1Ad/37UQgPkTbb2r+nubn5fdy2OanB8rx586oz6b5PIM9i/kI7ZKRLVH8VVtsUOqEyCBAQhJFyDAyWcntX3yBZaH6YPSCLfeNfxQAig98m1m2v4bawuUODb6FkYWT6hX4fHuQQCjnPEd9uNI/b+BRNweEUmgIVgRSMJ5cONA7DZGEHZOFRF3LlaH85Emyk8kKuikEWJuovxpNu8udDePmiHjKqFZn3sHTwrO/rHWmxx9DW8crqC+eKSQpGSkXn0NVQXysGRtKZRHVzWfv8NMZKH8VYSYjguK6mpmau8t2P0xm9gxxH0lqMFTlxrXRz6nc4cvcjp06dwuI7dlOLgDnCYF2Qo068ubGu+u72rt6/myyi+vrqV6E72kqYVZP5zfc98tsQ5V9lNvwgs+EfThAOPhrN7maCOEvyiiKRQ0LeyHbmP5hgl4NB3f/3aBJ+AyEWRhNEv8HLZX6bdO6bIB0VLAml+z6CTG9FNj7COQlAH7nbdc13w4Wcmb4vIQgjszFSs/Ds+9XONWuaH2bwgCyYK5kyDZGFa6ebLAwNcoE6XKnzNLTdFD2DHKQgpw+7tnWiqpOZb6ApGZnD4n5/mSz0nn1wq9q5paH6UduvXKS0fwUsWsgCM1bNMoQJb7NQRH4wtHxAOUptv0CFx6bAPOt6eodtWYcSCX08kSyupmACpHMQuQPItCHK7GEwXtlH9HMJx+rCeOvPsKLeyfOLEBu45a7rJmaav0qe34T/SIaNE+QDTbP+RQjKM/i5fwJ/8asSIIDx8EHPVWnKoKKA6Ju5t+tzrJ1X0Xd8B/LaOjouWZpiWZH6o99NPaI9hx9kRsc58jdNciGj/3+jHh+kHr808t2I71xPbhKkPzMcBpg9PT0phB13G+SFC92HwP3v6Ac+Kd1SWEeQOsjVb/V2d1Y3NdX8XVtbz37iGL5oasWKFSlm/NfkMul3sFT6dtKIdEQz6biU/Z9yY2boXRNh81QO/ickCCMF3PznolYeXIaALPStaX6EDeiLIQwBWQDwzQB3jW2hWaCUJ1uGEJOiQtxoUkBcu/nbRgexHTkOuwpScKC1VQdyF5JStLCvDMiIaBZ6z7Jss1vNq3k0l65YDC7LOVnneioaxnEaA0ezYMjAccKtpgUuyQSkgP98ehV2H7QxGD9PJ/Osx/KBbaxDrq9OVPZcEBKVjZbj6KG08Z5AUyGGRgW4QM37dnK4EtXvo9q39mPyxGUzxkY7srC3twtra72Z/nw9CBRsdzCWoGAql059ghngLmaAoqqO3RQhYNuVRz0v/RLJrSkkSfqxtTSTT2tb3dFQV/cMhwQdo0/JMLutZyJ0JWV8A9brcinS8kLSmTCsliOjzaeYDX98nNmwTGRDz34nTLOEL8EUWVHKT+xcxoS/YPD+BbytmNjr2G9JZxFv3s/FbTei4XmW/lXKLotRRG1r65kr+LwOSa7BXyRyAAHBHks/SH/yL2NLMPue5k0QRmZ9YNAdJAv3Qxb6mh9J+LlFXA96JWaoolKXZYhr8yULI+Oe6PsQKRB1OP9EHf4cbPsZ1OHbfe0eTqrkCVUJKShwjTyo0PfNWZjx/Ws5bHQZmr8DXk//3prPhd9rK/kZ0Fz0sNzRcw6bhV0sQzxu+84irZ3ldDSiWdjM9PNa1vsXym6BYp1LMUQKwAnCxmCp0RQo8wxXuW7ncqNDCU+dSHRNDym4qJwt9TC/5dKWyHYIg/HJWvAd9EXrqYNiWCkzFjYqWHV07ANH4VK4JXYrmc1+iDREkzA8gylxmpd99MwOe+vrax5mU8sayrogPAguW98WM1i9gs8OaT5oTDEI5EAso5uJPYq1fRiZEvQHdzPr/n8EejBMwJnsF43NC5D7Pwbje8lHpLGJcM30uK9iMnA9humdfJfDnig7XU+fEPnWRsGV8j9HVfhyd3fvJZoleT8bXdRCGMZiYDAeIAvP3q92bXJbHsm5WQY/+wo8yUyZLS8XkwUJzOCVVysOBjkGTSEFBLhA43+Oz6dhg9uzxj1cJaSgpgikYKtyMlX1y3RCb8h+3boOO5QNyaTC8FA3kHhrtjJxLHNf0y7S34mJyu7vPtVx4m4xVgzpXl6G4AwByELP0XmPpZzMIuNh4GhBriALVOoNzFYWBDYeYhsQwr1MCtCxGxOQAuJ7BrkxNkRTkDEnK/vbzk2HpmC8bNTU9B7o6a55CrZ/V4F9+1ASc6gtdOZDP4e/DD0o6ScTjevXMYjsiQlCSXEeFTmFbP6Jev4enos6u1AnOwSWEgl/U1t/BgVvxPZrJd8fLDQjMyi8z6mM/+DY6k76gv8C/oWI3kjwxiKWnQdD+EZnV+9jhQg108IWTBBGZnhzMHM/L0ZiZ8z9qNU7Wx7LpQbJAoMfxR2QBYwG51JwiZFhL/nO+bmY7CjtDpACBs+nXY/dBzrYYneyqqH1fKpQTcG3lleo7q4rszlzfUZ2H2i9HnX/QsjI/JxWjTlPZgpBJYXs6I2IczuD9um0q0695abG5/puUTsrHWuHMo0v6Y8cylySh0keDJCFs2JIeY5liOd6G+Y+gUZsobLs5VCPYbIA811A+hPjpbnmdgCvDpYR9tDAnkb0bVlIgYIUnKxsP7/yIyq0jJNkoSivT5xQ/XV11rfYNXEHEZZ6djaRzMw4glkGiqloDjVkP+TkAchBXpbwUVIhjYJ6zihpzoQwiUTlU2xXfpK6f2eBg0sh2ZWy6eIv8hXCyC8FvJPjjp8uRJB8w4rqnP5llHdq8TTUMrQm5+vrq77IkX1Xg8P6aSzHYTwCfIx5wHb9/8PDsuxDh4Ut8peiEoSRsg1oFkaQBReykM0u9LV9JQPYFgr/+Ej/o7+zYrWXyfN9bEaAGFgvqpQ+WdWOpqDANXLz5eZaVZG7OuPbmzIdndcxEqzBKG8B5GM+adXlWJSXhiF/I3dn0HwcDo6ayzPIjbqG40VvQg94NpPzz/jqwt7+rzfttLW3PZFOHNSfmnyrzej8ki8GlHNi+CI2CwNkwQ3IwjJf+1tYn5tkw61/2POtbxD+KewvDlVqc1LZ7ed1mZKC0fmnI/j+/9/emQDIUZSLv6u7Z/a+kxBCgATCfR8BkRsREDzQhz7v83kjKh748C+CCgoq8AR94u17qCDiE1BE7kNAjgAhCREMJEAIJNndmd3Zc2a66//7emY2PdPdszN7JJswlcx2dx1fffVV1VdfffVVFTzqvi3B3IU1ouV6gYUrGJN650RwECZCm5Fljcss2/kfQE7SyqaUQrXv8SggW9xQUUsfYA3faBgv/lSH5weSa+BdD9IOLmbQrRqHfDu6A1X2t/v6+p+aKhw93Ohg+QE3A1z4iUKQ0SlwHYTrMUcaE2o5W9bTwrDkp1DL61biy/JdjL7BY3qFh76+oSfa21vOA9sryWyCuxpIOQVOyku/vt109Le6h2R336vLTZuA4CdjibCwbCg96wHILi0t2pn2X0cd99aG+YkNzLQnZTjXf2VLV0Pa3hsd0aFpI3sARnm7xS0tQsFshJBmhAJPICgVCvzIiTAt4fQNcSYGhR2o8EWNtadtGofalj7FdcxXRuzsqvTl7U8Q/li966xQXwxaQnsQyvwpFRaM9jkPNpnZslvyGiznnhHHfLjeSqzfWoQCPwlkL3RnW9O3Xe3dzib2ApvF5RiA/heGkl+34w1/zmSGn8OukRWCyo/ezTMRtoTqi2hTN6Z6hitZoyzf/jdL6be9TGy7/ja0CL+Br/+H1183XxElu99YrrrQte2XuX9IDk2rFgdhRNdwBdH3+voGl4J61UuY/uLm27Z4yemnq5EPVtHonof1rnNz50YksZcZVo4SFugQ3xNqESI4/gZNnqVj2Hch5Kh2ljtm0b53oIw7sWVoV+As5H070jChyjFFf96TfHeam1O3DKVazgPyRcCSSdlmdyILUSF3sz3+q8mBgZWbHYEZkOFmERD85czbLKzz+4W9N33es2sIC6rIb/DiWfOsOnc/bvI5RGfUgZbtLjC1uT1agC4s9plgyxp90aBfEdxCJEmbFxYETnMma3Dhj7EL/eVgm7V02zZeSTvmmsyl7Uu5kORx11RPNpzdu1YE0gKMSp4+YaFsdHXWwMayEbaCwMaWwftSqZZL0Op8EyJNZrtaRaWlrqQyHoVxfrOhafD2desGh0h4H4e2XEHA+byPu9SwCYb+VixWf0cyWd1RvRUhOnWRqmp7U5ft5oMkWgQuPfoeGr5FVO9xUz92BcvCOMKRIepn7FC6IplKPSMxcjjog4UfVIJDHsZPTcf4USLVJ1v0xnMkCTpvUGNUI+Q52vVjfD9B/iuVq142Xa5rdt1+3dAwiDJ2hDiyDDZem5B8bM4PqDOGhppHTLM1rlSHY+q58NA9Sb0/AA4h0q6U1Y4QFkJxBW6kk2XHzs7YdabDWexKiTZhx0roGAmwygAPYW3cjHDwDXYkPUry8ehUZQ5bR/TNLiBMF1k4/tgaOaxtJzOuDkTqPYQZ4QF1lppP45qLeNyZcRQz8Nxx0V5Dm8Lq9gsLdMj6jKvlhK755HOAaZpHW7axfjRrvDR6eceTo5erx7VjPl7XvPNq9fElouqruTwFhCk0N+tfc7sCFsfu2cxcpmU7Yj47F6ZzAzP+S9FePJxMjmmpRmw7+zMnY7MTQnORU3T1CDOmSd0KrhcmkwNsa0xNStMVnVMtpBoKUJ/PdHa2nMuy3CXU0VHl6rAauKVxRTikAbxEG7gCo+zfce/QC4U4gkNHR8vXCfsJftgQlXVJrOwvVab16x4fjDIpYGRA9g27nqCqtey4QDtr3Oca7iNsN1+XTqsN4CK2NZtsYgYHy4AOBEkPyLBLJL8sYYiNmTibsxrYvebO0ZbmkDOTe3z0MUQ+kvznlHQbNk2ZVS+59fb29nM64rVOZqQP+zBOPmUrfQngHCpT99erUjmvQRtXG6Z7ZX9icDnQq8Y9BKNpxjwkxynw2qoFhH99ZlHdoj0TGBm6h2RcdTCVuj/Hdm3vctkUp1m0p7M0XapFft4gPgUEGw+E5IW6znN0lBjCwnZI2nLr2b4sRbwGC931o66zfnTguaeGL+t8jE36S2Ju3TPqS+ur6rXj4bG1houR0uymph+mTbPPtFgsMQxmDnmCTkGhckzdeJGzIH7FftJrUgPegSpFDKC7e+hlTly8wLbMThjGiRH559TByr04mRxcBmpFMMZBVVi7/CbkIMdE0040neC5NaXVvb2ph1tbG75oKvuL4P5WflNm/CqE8FiKNu5AiPyx46p7Un2J0muadVNT2x2pVPIC7Fq+TZIOfkUuPxghYJgXZlzn+oH+fjFYrsRlqQ3Z9SNLYcLgXqEx3sJpordSyuWOY73U3z/IGSCC5rS5LAc5SR7ye5rjy58wMplbDVvtAT4nIjCcyuLDglyz0Q9y66Fo56p2ohFaYBg39bS0rItZxkcp0BnQrWkKWUIpTivoXj/ld2NfIrW6NHAS31tT/xkr5lYnIOirDokNJVcdYNn2a7XqPTCb0bthLLgdAvVsZgwYGXK0Ca1IfptLKBijZskLKHh45LvpmN0C3nuwr/pgNAsns/ywIa3Sz41e2rEMQ5h/2K2ND6uPv7qP6t3IcckcNvQLmN4z0O6D0OskmCFMQShavfN6Jn9Ijm2AZwz5+7jjPrKhzB3yCCorsab+itL2RTCkk0qyTjMw/JSTJ69IpQaerhaj+vr6kUx6RC4Xml0CtxJQCCJuspKIwTiSzhJBZtylE39aGcjAs78xlRpJ+QMqfCe9GG9W70jIrLR04K0UjtPfP/wIgt557Ex6HIun94ADlwfl+2SlUHzx8rN0SqKeYOP19Vq5f0Y4lOWAUMt2OeSIO0KuZZt0nPZyHvFmFcAJHuDzT2WY5zO9vmWA0bYQVsFTcxPtZbathph82JTtb2hNl3f2D65dw3JHBemnPAoCgOAvP84yaH/M1Jkb2FZ9EhXIsoPzv/hPWFu6RsqUSj0IT1hvK30/DfhdwDuS+uAGzIk0LFL7nFQFGooXUcvcALQ/0EeW9vWhU5wiF4/HR1wnM0A+coZGtS6DoCVC2ERdb15Iqyq9tHU6/T+mTKquKvdJRD7/pJdjad20NzPxw+hgbJtkR4Gp5lKgetoKJgcTZwCTQKuipIXGIbsRORBJ9mp3cIDRLNSLdeAv65iv9A9mVl98+0gow6kok20k0ujo6PDISHp1Uyz+uLbUMs69gPGpZoonR6pCLvlTXFj5FL9c2FhgikFmBUz0euh/JUzrur6+1JLBTEa2opV1o6OZ9fUN9jI5HIeIe3mZGkYv39/nYq4fsjb5bFkAEYFDQ0NOfUMdfU/tno8iTH3cH2VLUKprTavumuHh4arbSHNz26DrOnOAMY/8ROU8bp7EGYagL1PmH/aMjv6d70Iz5rUy19wcT7qO2pPYcoKdLMNUku8QNbwSg73v0xaeqyynQCzNld7dsXjdSmwSHoLeayl7jFhilV9faCeBdkSkkjAM+LjIzjDuJegXtMUfoaG8rb9/YDVwyhoSjuDq6uv/xUV3L9G/MVxUnLaJU8b9wDm3sbX11g0bNgyIVzVOytXQ0LgclvdAMtm/BBp1M6JtWkaoBtjUxnUpct/waGZNU3MLR7ib/wC/Z8ii6nZTgpamjL3NrW3PuO7oo5xmuRItYAY6imam2auvkgRRn7m6lXFCczS3wYmy6nf4/RcmFH8C1+XgLwesTZmjr2br6uswTVO75YFW0v4Ft16Eg6vj8aY/cIT7hASshoa47FLZl3xlR43wjEryHoKu2Gbpr3ptNY/0VvHQ5zP7aW7pNOris7gwowNJeheEhb0oEGf5G3ujRZjP4Iu9AT0XacETGLZgyYTAcniRHD8Njgb2EB6z4VaWlXwvzTruU7ah5BCFJOuY3ZvjzogtSI4JZS23rzGo7oDF9XwYDmpVd5Hhqp05G0OEqya6ugi6MjOGYeghwhJ0LlkrfQHh4FmlzdXazrzc2zu8Hj8ZoKpxCoOzPVgeeotW5mw67JJ02rmTDiuwJuyY2c7GkJWOy0FcFTlyN80hNE5Plzmjf1xIrBsvhI57chAYDENMdStxOkG+y1nL7q4kdkgcu6OjaW+M4xdQV2gtK8qXM7LVuobW1mURxw2HZFPWS3GZ1xzbtnewDGdXBMW9oMNCjNB2AKc2UgoDxeksgskIA6/M+DD81evQSa6h3v8F3i9ls+bLCIbMyqpzrKW3OE76GNrmsZj9D8AE/kI9PgmUCTH+6nLf9mJzXXOrkU7P1zFzIRqaA+GycoS6GKZuzzgg9VnPrzABZsMZ9aqULOOikVLPM5VkC6laShtbDm9YB28QfjFtApb0d4TU/cBBcKvAef19UOvMykRieMy2pYKERVEWLDDqe3tb96Ot085lBBrPye5CTp80rBe4HXdZBQnGA7hlw7UcdtS3sS1t1nWZhjs7mzF3R2CQAzYO4Iri3XnORcXIOEHt5wWG6cZYZAE7LxAgwEjWGy1D/cu09FJOClvB4b9PZ7PuhqZ6q9uIx5PGx9cNk6RCZj3d2M9o+CaMAS3CcJtKW81ZDuCnfmWZzGvHdD74bjZrZTk737aH5Srp7VgDWBWhAq6mpKg3O2OxTENDQ1fvFA1Ykr2o+gtMbDx0pIwyWy07Yx0PSD5c8pRfpW1OGGelcfNZhD5k9i7lqBTWtAyei9jj/0pzc6tlWa2mmeViJltOTSzUAxN95eCfZi1/JJ7NDrr19QMYzMngMlnax2Y1Ns5mJ0CGJSwRtiqlA1FrLoICNgK8CNnYC6k2Wzm8q05+rQh/IiTAid0MEwmpvySNr8ew3X52dCZisdbe9es3q+3XlurvQjrpe5W4Qv/0+p58bDNOlhg2/mh2U/OI02EbbqeyzLmo8PfKCQzGAY7Wi2gt7RzOL+olBAZ66BR0UcQPNATSEnNHQiOH9HMO+LN8P0key8llJVuM1iEr9A7FzUQnV42p86syattm6qhWkBoFahSoUWAaKWAhANp9s2fHmCBgj6YVgqCLHYDDNewy6E2VsDuNRZg5oGesgND/vZZZLfFYWp3VO+5acRQ5ueuA+/w6mkf63U4rbnRmXXvnmOHupU21P5LBvggPC2N27rQzuetBdh9UIjB4AgGUE0FDHFqCYd6f52sFmu4nM9p8ytbOGvbR9dbVYeW7V19KHT9x9dXq8xfUz27c2N785UFRg9VcjQI1CtQoUKNAjQLTToEZKyCMXNrxKTumTnCyeglLB4+MZrLLJztA6t/vE0+98EJrPKY6XCfWwXx/EWvL+6GOOoBFqr2REXaIW0pU1jLoj9kvCJFEFpCbFsWlHVmnNF5Ca/AU/k+kXWOFpcxVrpNOZEZ1orl5bv9E7mbwgOf/6G+3dWQbLW6mcw/FfuGQ0bSxvvGLiS/749TeaxSoUaBGga2JAiwHYDuWrWdbZC8z+gltfdyayru145ob8WZgKYa+3/Gd+jrjc2JwBno9nGkgB5I8yax8STaTffzF4dTqfSZ7L8Ol8xsGs6NtMdPpdE0M0Fx3Dzum98U69kCuZNgDfcIc7BcM8jawml3PZULPKLZMZTPGctuynh7JOt3KtXqb7Lo+dfbaSVm+yvLIyA86dsQ85ACMpA7FcuEAjFoWYD7RxUp158iovrPxC4k3zcCqqqFUo0CNAjUKlKVAW1v9QnYlfgCV/2IGnUbY3StoYv86a1b/tau4Tq5s4lrgFqOAN1veYrmPkzHbgOpGs3JKlyG/PbD6Xsza/umjht29S6x95ciliiuM1aMNzXql+ri3D3cciMXB+UFdBvZX9PkMw7NnL8Gyrd3N6s66mLE9uyDEynxHZennEFT+yQrEyyxgJRrqraSxceNQyyTtCPT58xrT7cOLOEv0kMxlciyrsW9dTM1luaOLE/7aWAKJOxh8c7QpaNQMmoprr/ZVQoEYOwX2Mh1LDLM8l+ZkPTnRr/Bde9YosCUo0F5fv7NSsSuY9BwGJxODQqZdepSJ0OE9Pc07cm/Ud/CbrAHolijaNp/njNYgNMTVOcPpTVaE+SV/GSnZGm8MofJPMIj38lvN9rcnaICPuNbI0sazhl+i5jYlnEA1IjDYRlt787C2mhqa3AHj5cQghoVi4DIpl7qoebZRZ+8bN9ViMDwIYLvHbYV9hObHfl5WMyQDsYUoFKCe4yFH0vomlhjePKnMa4m3VQrE2ltbz8My+1RmZgVrfNkuMGJo94pE/+BvttWC18o14ymgOtpaLoaXnQWmcvZLkaONvoK59hmJVOr+ooDax4ygwIzWIJRSCBuBgpONmk3M9Jvwms+IumfM1K9lmt07mq17ZeTS+mVsKXwUZrlkXaJt1cLz18jhEFW5nDDgnaaVrCphSeS7EDSOaGzbWcWsgxBgFrN84d0RgRiAlkC3cetjA1oSTxjwCwUlYGoahABBah4FCjSydQ7j2A/T3ucV/ORJ35Ate+/j9be5T/GtuRoFNh8FOFWxjZMU30qOAeHAw4K7cjhn4o281wSEzVctFee0VQkI/lL5B1POO4inuboZfjgbtdUizuw+EMb4xpGMkZjX2sdSRDt3HhiPDKedFa3npiZ6dKs/+7LvGy+e1cItQ3tYtrOYM2EOAZe94zZHQTtGZ0YZLWlXs5kCbIWDA0meNVejwEQpEIvFYL6y/zvgWKDChqXmahTYQhTgcK9m13G2i85emJ9awJ+am4EU2GoFBD8tSwZZi/sY5LSqNtRXC9Cz7hm3zOMxjknErdiLo5d1POG47iPcfP5Y/Rf7nmd5X07gm7QbvGzW9pbj7q9M93CtnIPQauzKEkgHJzu2Z1yjaVQOBcX5tCDV5lkTI6ql2KsqfuTphLV286pqBzOrsHJrltHWIpOylnDMhC3qF8PDar5bmgLbhIBQSkT/IMx7A7sQ5BjV7TkudTdOOFwcs80zRjNq4+jlncvTl+tHOQDh4WpvVNRXGbF0qmtX7r45hLM4uBfC2T8eR8WrVQe2BK0sHdSxdXJMQ1Dj0qW1VPuuUaBGgW2dAmxBS6Hauh4t6heYpAWKi18KXvmnQEDNY0ZQYJsUEPyULajxxY85VowzNzuxl+UoTr0QQ8d9OWPglIw2EqMqsypzeftj6az7t6Yv9j/ih+F/77u0dVGzbb9xZEAfirZgrzpLdXJCI3dCGM1yvbTELeQZ0h/8oCp+91QPgK04QS1ijQI1CtQoMDMowApw5kpO+t0dbS3btD2NAZh5p9n2wdQuYqfNYzMD1RoWpRTY5gUEf4FlhPUN2qbsGmAHRDN+87nMYncrZh1lZDXbboxIASHmmqeZcfVl2x0zMJzs0oEfxdp7jQI1CtQosE1RIJkceb6tre7zlnLvgQMfydZ0lhv0GmZsf9WueTeFrdqIfJsi0AwuzKtKQCith8JMX/yxFajjrmhu6ytv1EWadoSI7REu/MJGKehp+I5cY56GvGogaxSoUaBGgSmjgObmymfZ0fBzlhT+yI9LNbPD3KAoF1bVhIMpI/PUA3pVCwh+cnr6e+8P5ovlnBxYRDyfJqJc7CkL81CbMmg1QDUK1ChQo8DmpQDXB8uWcfnV3FZCAe9Qnq0E11c1mqzf1WSEV3ULmHDh8yYsE05fS1ijQI0Cr1IK1ASEraXitX9vxtaCdA3PGgVqFKhRoEaBrZUCtSWGrbXmtgG8582b1zg6OtrBmqQ3y+VQFae7u3sDRZvQueyzZs2SvdaF/dYaWD18pydKKtZM27lLvknwY9E0s2HDhvUThGWD25xsdogDY0xOltMxbF2y3NSZMs26DW1tiQ1r1mzWtVi7o6lpLyNu7ce9HzsxSxCaKfAa4trSta6bfSoeb1oJ/VITLO+kkkk9cuNfp8pk2hzLlbslFNepc7VErB8cE/39/aKmLr8UOCkMihNzA6EcNiX2Se2m6dYrRzna8uqup7Ozd8MWvGwovt1228XAL7tq1arAhUfcmLiT67onUbFNvhJhI6hWYhNwJ36TpqH0EY74PkU7RuEwJC131yQSqVuBX+h7Zkdr6zvYuHA0i7Ps9BJ7Kvq8afQbaffqxODgkz78qn4VPjIyMtKVTqdbbVvbKoNJmW0Pwk96Eonq7+ipGgESzJ/PxX+Dg7O1Hu1SjtWsLW26rjOCuUWCdtNNm+2dCNxq0nR2drZS351KZVodp9BvzFFwSOX7jVx8WJUmuiYgVFMDWzLuNrbE0NbWeMjQUOrrjL3bQ1ZPQOByKqe9vWU5d7l8g+XK56shd2tr62GZTPp82j8naopTGlgrbbvuKwx0L+f8Kv/b0dH6Hu26H8pmXTl0SzlOJtPe2nxrsn/gQr4LjK8cQEUZuWvDOpHkh2QyowtMw2qjd3LDuDKxYYFDWlmYyEAy2bK2vV0/zsBzO2fSP1wh/HJ5R4Z1tjWd5CrzvbAJ7gLRzTAvTmH0tufyaiKY6VFT2UPQchX3O9xix+N/gH7rIgFOUQCD3O5cxHY0tIFW6V1pELOgVJNp4ItjSGG7nMsFP0aCen0R+i0zXeP+tq7UkukQrmhPiyDICQx+h5PzbnI0OvSKUWum5lpXpU3HcbKp7u6Wl6i7paB4d3v7wIMTxmWRUTcrOSvulZUDWzZu3Dgg76UO4WleNpt+Hee7LabvzB8ZGUbIHhqlbT5u2vFLe3t7+yUNgkNTenToR6ZSHPFu+O/nQD7QQ21tbZcgJFxVCr+a70WLFtV1d6+/HGqcQA/2cPfSazVMHdGHU7+U79bWhsXQ7xIGKa8vFcYoLuNzDFvtv8AwTl9TpbEiwg+CdvZYll6PHhxM7U0L2c6yVBMwFbfoGNTbCP23h3sg/oXXA5YVu6Onp+clwWeqnNB4ZGTgSOAdNzDQty/1sQN9upn2YUnvph+5lHuUdtPTDh7Q6AGq4s5qeVs5fJubm/ei3NJvDqI95vqNNhtNRGpJV9JvXpB+w6nCf99+p9SSFSvG52M1AaGU+jN1IJ60rF9a0C37zWB0OoPUSZA75seEo7L31q7Th9/Zfv9x3uGD+kuwhtcBM9+mOWQYWE5m9CnSXjxO+qJgmXmBA4KAnseAVGCuAFS7IqX/FCa8tihByQcM8TBL2R+BMR9Hmg7gNINXHd9ep+U55ii/S9g+0OMober3dbQ1/wPe8rNkcuCusUiTf9Eyu3Cc9DmMsu+GYc2hMI3ki8sd5pXLYhNm4LUzBDzYyY6e0dnZ/MPe3oHfe5FzEafsb3u7CFHmB6Hz8QCdxSAiF5aJ1sACG49ekpkPVQf809DrZOj1MYSrJxigfwu9biTapC9TE8HAUvojlP0U8pkLQ23hvQ4Einil4JOvu/0QJI4m3vuSiZYlHa3ql6g4bhacK3XMrk/V3fpjWZ3OzfQB3N7evLKxUX1z3bqUWPqLi7W1tbyf+vgQ9FnAACRanzqi8p8/pnmU4aRX4netRHbd9SgOWvaAcvPku+DydBTcP8UAd/X69esHC2HVPtGoHcQFev9G9s3FacHQ1TsU/Cwjtgt4yPbxIkdd0z3U/r2trY1Gf3+luxm4tbT17YbrvJ8+vxclbyW3RuBL/Zhe+SSXXLPmlhuDGyT1G91s+sX2lpbrXKV+NQWz+XhnW9vpCGDvRQyg/g2EFaORfISXjbVZQSOPh2hEDwHPUxHs1iHM3WjH638+GcEbki22TPMDtMLjgN3p6zc2ZSarnPPokaOF9JvF9JtTXFN/fN3a1sfoN1cjxP2ZmJGjS1GjLwCtPWcgBegNMxCrCaNkarUG1lZHxypy0tBpz6fAvL5WKfOaPXv2nPToyDEA2jSL4QNYTXTQ03j9Hj/ppBU5BtIjLdPaSfhXSYIEwoGo6ULdggUL6hOJns+Q6D8oljBmBIOSAgZTCkOBDpqZPB1drjbX6giYyC/rGpourZQGQbA5H3BxZLblupnLmFWcTj4ILKXFCk0ttNwO9LtgHwsZsPZpb5910Zo1aypl5KFAfZ4xBuNPMop9EnTmkY+3zOELD3sVxOFZyoauDAoGKl2DWZtxGDPFk5QV+9Z4wlsY0Lyfam9vRbOizwKfXaGTzHaLmX0wcb7uvIuIOgmey5RtMbhcy9TxO8zQI9tKAdQ+++wTf+nFF86lnR5Ki83lRyOAkR8+NKQfJ96vaN/NmczwtyjnOyivaMjC+DYCqFpAmOc2bjSG2tuMexmAF1GWgrf/uVd6aOhgPO7ze1bzznLLGxggOUemGD7fWSh3rw9WQcj2eeVeSYo2DU5Qgevq6tqBgf48hI/TyHE2/aSov5eAEJgyYMfIQwQYLoVSuyL8nYBm77y+vqEJHc6E5mVXtBPnuto9iTqTugjwMPz8TvCQ+pLzdoS3zUWYW4ig97q2tqZv9fUN3u6PXMF7HO3MZxgNPkr+20OHifUbb/KjD+9obz7JsusvjNKyjtcBKsC3FqVGgeopAIu/n/Z/BukAADkoSURBVA4TqkaFqe3KmuKelULFjuEgFGqzQuMzQ6FT7xwaFuHJQPp6mHUR0wIn4dqoCI2hsGTk0dGX6PkBqowvE74bv5JZVViqMD9m9oaxECby2dGRoctlcA+LVakfg0ZMO843wf7tMGKEg6qdLapstDGfTvb2fttAFV41hGCCOLPhb1FnX4XB7UE7aCVKEb2DScJ9SIS2Qe1I6ne7TvqXCB1C+6rcPgiWLKd8nRngd0h4EPgInSbCGxsoz87g8jFWIa6aPbtp7niIwJhjxJfZttDVG9Dyz1YGgTm8W5nR0e8wEH8QvGQ5Lkw4wNtzfhqiLDJuoM5BKehozzFKKMLzhNwi2gHt4g1h4OkqT8diA2MDMAj48ZpQfvSvXRAOfkYffBfwhF7lhIOwPBBStAiUJ7IM8Iv25maZUFTl0Awebir31xTmHSScz28ifUEEoi7weC11elVHa9O7K0VikbGorr21hbZgnAMNduc34X5Dng3U30408/ehZf059F0YhsdEOkEYnG3HL1LZsoWLCPfawhhMafY9PannaOgrwoDCvOJKZ48OCwvzU8o5Fh4U2pZhVq1MaI4ISxfmJwZydN6jStlqnhHeSZpAPcgMT2n3B7DBdxFPBBWKFnR5zwwhfcTzZuIid4Q5YSLQ4Z0YDMryyEQYUQHsnsxqP0B5igSWfL5kY2ygSGv5DUWg4sEhXier7x9u29jy+QLgiT4RDs5CkPoYs3UZAEOzFfwo/1gW8u77HPMvvIAfMyl1DAz8h/PmtYQLi4XIxU9rbUvL+bSes4AhWp/Q2W4+b6l7UcmPCogofIDTDs3fmEmrK8YT8DAq21RIAepzMPBMZ1vLh8HtfVRUJYJiUR9oblZ/B9zzPpBjr1Lx/HuDGNeNeVbx0t3dtBfl37c0idQTRLoFDYbQaUoc2sQ5puH8N3CPB2+ZMYc6qY9cO4kkqaSTvrQftg9Xsn4fwD8UMJ5oHQ41lfUTyHY4v6K+VEhTaA/gSfvA4BdX8CvE8T1FGFzI2tAlaATe4vOPfO1p2/gFZaoPk79oLkILWaBBAcj4/Ua3gu8JaEV+IAanhXSFZzlptBCn9pwJFJipgsvEaZMm6V00YDocTdTnct/m8Xhd7vOOekXdbB4j7C7c0QUN0QgYvwkPL/ZFG8H9HMaCYl/vKxVzjQdD/M10euR8ZsNvpRi5NeSQSPTmB5mx/ZlV8uW8JzAUbCLNIu3oE+nUJ4O9rLsXOejQzED6blTfTyeT/ZcVBVb84anii2MrPcym2f/T2vwLAf9SykozUM0Fn6MYtN8HPjuXVImXHj9Z7z2b2dcDyYGBe4uBVvbV3tR0ADDk4p4AMxIIwuDIpxt6PMTywzI8XhFvBty5nHa6H8GHEQdbhdD8mFWqY4aHjS8Rek5ojBJP1rM/SdP5ZBQ+Ep08V/LnJsbyx2mvG5kC1iNGLGTn8XEEn8wvMGCAXwNxT0PAO5fwr/ALx5iAMAc+JNCLUQMcDkFkphjqwC1HNHlq93l5FNzatf1Jljtug4YfFXhBp/ZgGeRA/MPadTC6z4e2czJtE41JMVzycQxl/ZmoxQG+tFW+WiMjQyyvqGNJJ4N7wMkgyG4cBF1jObRayze09zRTe0MfWZMvdSh4jL0ty/w+E4Iz0OKU3a2D/c587WSuBA7KpnABEv9BSHwrA/idrmM8x3yFXTd6tmXqA8HhNMIkbamT6tsBXC5BWHlmYGBAbEhCndgcYKf7OeKGCorSb+gf62mn0m+eyvcbbBf19oar9qc6sD8QW4VQ8HVoq07UyhXh/+v+GDUBwU8N3iFiOAlL4m32z5mK1yQIgYrtTtbyvgyIoplPHuTiuc3Ns18ZGNhYLgtUYztCmr2j+JF0CBYLjhTNwHiMQPLhTg6kaZN1y+JmwNeKjf39z5fi0tbWfAaM8j+IHyUc9JL22zDN62hZfbNSyeFVOXsIE5zu1+bg/2Wz8dea2j2fzr13ca7gzoyJNvml9vamu5LJwSdK85/A9yqtrf8Xi2Xura9vT65du1YENcl2Jer5R+gBfzaVvpg8jy0hQSGr2YZl/j8+3sTPm0kXAip5Ktv6BOXcTqSAEMe9Z8b/cJbpL1QsuyabjQ3Zlp2VeJlMJhaLZRt0xt7ZsNS7qHMxAg0IVUStw+zzI9Drd+PRi50TR4DHueQZKqwAS3ZN/MC09S/TacV21NYh6JVdRDNJzmLHgTX0R8exDiG/rzEoLQ60GYQEGvbHWGu+nbXm26Qc1ThgvpH4gXYlo0qOevoFLPTX8JWk3p5gM+7NJfAxhVB/QpD5CP6BPgb8OjQupxFWrYBgQf9Tw6qQwekZK2YvKcFjwp/0r7fRv94JbcOFA0MNgMtPWEq7zrLsl6zR0Yxu0CbNRdrGYna+fIrBjwlEwEkZjmVHiNDm8kDoJg87m818k0nDwRA9oF2ChtJHH6FNX2jbDv2nMZVIdEu/0GhnbASwW3n/JVuXPgQOn+U9rByL2InwDcLezU80jAFnmtanqPcowZg0QgPzatvKvEjZh4v7jd2g3fQuMML3APgD/AI4gFs9BfkEgsq1CCpPFRCoCQgFSuSfIQ2pJMaW+ZyxgsskyJFx3ceQsNfB3GQ9r9gpY07asg7EsyxjZTZ3OKyPZYTi5P4vOtbOrju6H34P+P1D3mEa6oRSRi9MAMZ3L/GLOq+sMWcz6jzih0r1xN9Iwk9YZvz2wvYzOPmYQ2CRwZnZy/BNCDqrTe38GgkVYafEaWMuDFAEqffym4wuaRXqlA8mE32yPjxcYk6Rzlt3L+nqavmE6+jfUS9C/4CDnkczuJ7CLXw3BALLeIjAN4JFOYxWxrig0/oK7jj5Ngyql0AEA1AMulfI+2nLMpYAR7QqAdpTX51s9v8oYWfyC20ZolofSPVfQN2F2gmA4Ajmc19yHPO3iZ5UQuBQXh6GsUr+dHuDgHj0dHU1r3Id9TOayWtL2yGZtyMI/+eCBQvum4CBZ6g6HYH3LvK9GjOCh5Ua6eOMCDbhxoYZjPzNS7CE5/c/wOrLasqzq+fh++O1c2W8YYGx4FtrjMqNT2kfu1Heg8P6Cfs/b6VdD/iymfArfaKD4fc/ySeUDgDupe+flckat6RS3tkYOUPkTYsbL7e31z/kGvELEXrfXVo3pGd3ij6TfnzNxo2DoqkKOASUt7BTA/sdzz6kKJz6pnHpOy1bn9nTM/AcgQgGQ2NxECaFX0gjZqNG68Uc8/Iy2s5L+JblBb+jCtWp7LI4NRnSp2bNatw+kzHeQIKwfgMK+qKsq66EBtJOoUF4v2HwXxmzjMcQJL4L5gGa0m9m25bxYWB8sYBcQKosBNSeM4sCzFK2OQfDlQb9DxmASx1+lmO4x5f6l367ylPzBgH4IgIr5jh6XFgswSGoqIN8Sb1XGBR8TwlTLnKZUfUfxN+zyHPTRwbGcg7b724uCAebggJvIzD3J9ioIiq+gLqTQQYKqTfBZA4JpKzcI8UxB5/lAJuHSRLKQfKgstiHPIO+8lyI6tlJlGYBR6pHkqLswRlVaVz/94ht7MX39n4/3/saO+t+F+FgA34IB5EuS7vprqtr/D2M8WvECvQMqS5IdiKDcmCmVIA62J84nfdj+IW2HWBcYln1v84LTVRBpBtlcHja0tnPMlqEDjJk8dpkT8/JkRAqD5A99ReYZvb9dXWpazkE6CkuPHqxu3toHe3HE2JKQXH7QR965tvC+pjEJWzvgbbEvqXpyn07GS1LdgHNBjRDA2TdRFgxvSY8yrj/RsOPws0B7FcaGvr/j/bQQ5454aAY8WG5STKTycqS0/0hbIaOpRZkR9XbipPlvjzbIgRzhINAWb0Y2ngajeNnpP75Fq1BlNPSjmy74efIxgiSwSYH7RoRSD9DBy8VHgw3E5OltdlhwMHtn45WV0ifIDyMBoVkWfrWRjve8Bv67zfxLK4j8fD6jXESr2OKgwlXXSHX2nMzUQBRejPltDmzEQut28MypLHKqHgsYQG1XiH+ggVGPXGOkLjlnAcLzQBxyrZ31uGPAF5bKSzSr2eRXmbdY27OnKbtQBCDIe+QoTF/eZH+D/bXxWQQixhkixLkPrK9fYP3UJLfSfpSB1NpNg33/aX+lXznGdJPEomhO4hfpAWJSO8m+ofuoiQ3hTEzL41Sx7JqsygifYS3YouYCtSnV15tLO0eGno5ImHAW7Z/spf8V+B4RwFHeQosfsOolf/MjF00NGGunlnUp6mlgAAhpCf9/ejm/6uSJak8cLe7b+gJ2sKPJP+gIx9lfAj/su0vmK7IJ4vAea5h2pcjFKxdv94zAgwIR0Upch8It8afwC08rlL1We2cGpIuyosdyrKmLkJYsaMbPougIgLoVDipG+lfgQEzT+MbrHj979at803Zw3PVQ7QrljIvoFMGBF7gW5Tk7SQNtMt0evg02lRgwpDPBmWX/jrng4hwEE7bEnykPbF8yYFR7gslQd4nrffI51paDisN47wPObQr0HZy7V4/kReQSpOFfssBXBwadRXt8e+59NLeyZnYPIZ5ioA3JmgEMg2FWvOsUWCaKMBZavfRYcJntFrti5px56is+/o6FtGgd4sKL/E/EGOjHUr8ij6ZwcvMqKhPCDOi+yxB+hYJfcyNDptvpGPtNObhe4FRpkj1/QmcYcAsxPwJTCtAD/ykB58maldfVhW9cqLcy9hAXEnkcrOcUlgjDCw/J98xZuGPAF2a02mPXn7v8d4jcWcUE9woZOVOGC6C2H+S6q+kepiZ0a+oq7Ndbb4F474L8Qtl3BhZHkGlLg7LCQQcSvy9CRymk+Uchl9jKCYakKBDoNqurW1BMGB8H2mDlPOnpl330/yNiOMn8sVg+voPms9zPq+xV2lX2DGchkd8zLPMi/RH2v3hpVFkkEFNLsL+lCwvsIx0MMWWcxoCDpSHGS4vjTptMpAA8mEDci80vE9oGXTmIXOCdSMCw4egT4SAou5pafEO5wrtH8E8cj7U3wu00WuFXgGHsMZJGG8N+LtuZL8BVpQQHABT8BCNJga3ohm5DSweooy/YBfW5+g3b0Iw/h7xxvphETMsAKg9ZyQFxiptRmI3QaR6BwZW0XHHjGL8YOhDbDnUR/j9/O/M+F/LqFnv94t6B1Y7Z+NGwhJ1IrDY3lhKZhifadwJXP9gg2aWE+RCtQd0WWXczUxqWRQu5fxJ9ySTs6URcXbCP5RpRsTPzQ6UulEYU1ScKH+rv1/OqlgVHs6wwlHE4WFRvuFXqQvJofLupBpTbUZBKPWHXkvtrPNhbBnfxlHdX+K44Z/hd3e5AR6dzxngHjEg6uV1qdRtpflU8o3KHwt673CiQHT820Zd99hAQCUeqLIxwLuoCo1GEVTWHvpZ5P5b6KBETDQT+7G8tndRoogP5brH08LDtGys9hk3kqy0AwmkkNEwIoO8NwcanQK+QQ1PDtJDLJU9Uh5CIHQUoeKGMFSYGDSzpnWQPwV2JbszaT/S71d499qrNn65dm3ZpbpC9NKniw5NNDpkWezyvOdEA81ocQjTqBAn8aGRLHFWPY7TP5bEss77TTv7b45rnGPVNf6cfnMvP1mqGnNVAx5LuY2+0JHDGvg2WtoZUSyOzTXuDmdeMgjp6EFI6+PgRxUyH1HRuSdGlRgjxn2o+oWl4XTCDMaD9/r92ds+H5wDs6hcHDqtNkVNV4kq3w+28J4Bj0i7DIwljypErOQJ/mjTlTBuv4BTSVIsLI1BysmsK0ji3KBuHJATrCoCh1mDs56FzojIei+MtN4TEVjOO7txcPCVnp7hl2QdNj+IRtJezs9nkAgYokoGUk62qd2yPnfWQbk8o8JQXOj7wgNpp8qzeQgPjvD1SK/VD5j1rYuIUok3Wmp2M0Rogyg5h+Y4YgQ3vjMNjEyDfY5aXS2aivEBVBTDojKOk6YbdLRFtpziX/XMmTH5AWCG9AO4jOEWLZdhFHg8OdFWgg6sNlrZ7J3BkEp9UsuJ+VJYbOp7965UcxEfgto0yTBaCAR9QEdr8zvCYI3jl/H3m7w2JtBvagJCCRWjqqEk2pb4nMGoTY4czG5up+MGypf3OVJuayvNQbYt0pnk0JJSJ6rqouUAiZAHf1QYLAnPZmV7I6fLlTjgr2Z9eaXfG0ZzEMwjVO1H/LThOPf741f9rhXah2DBvMHV1IdUCS85MpKJ0kiMBwppx33AyzckJjSY57oj80OCQr3MrP4npQrMnPKR65gHXdzR0fxV1NhFDDIU2AQ9Oedid/DeJSx5ro2oImEwLF5Zv6yxLKQp50io1AGkrUpLQnta09Dc/HvShQxsZTEpClR9faiSw7VBgi8j5Gnj4Uafm0eco0pbpghWDCS3i6aiKNMJfrCrQAzyxKA14MBVLjiLEMIC0Ys8kkn6sVK/xbNIuADmWmb1RfWO9uAY+iBNpdjlPPRy7GUYtCfmentlCVKvjkhdr7PWvv4wNGP/pIrCtQiyPdFU3+e8iy8zcdnJn24q3qtqrFOR4YyHMaluOI2lK+2V05jV5gadyehHsYpnndw7ya4oezrkwvTgoDCLJf4AN53eB64W6BB0pOeYBd7KTPuzpSQD1q7AElXqo35YvMPfOCiExH7nzZy18wB+m/YueRHUIeDKRL84fj7toGsbc1DZBoQNP+yod/IEDUeuhA5EER8pAw9RvYogNK4DzIbh4eGAwDRuwnwElnFWcPS0MCdZky1y4FOns6bUwT+LAiI+kkNDT7e3NbOcJAe3hLo58OQvc+DP+zlz4AnWRZfDolcqZf8LPF5ELSrqzyBhQkFFebpyuVI8jL6kyOIf53KqitTtYTnAzLuoI+Ei0qZKnN5pTlNT14bBwYoGl1z7c/+2bt06sdKflKMBDLQb+hYGPo62DpKQPnMQ5d4Do7sVURlxnfIxlqk4Jrg4Pd+YkDhRywtR4CL92Vq6kMCu0AjeyZ/2s6Fh43uOsJvpc3HT/bXjmjLp8OqIZZPnMBD2t+F6TlLav6SYOegIQwhTfSxByBHhVPXEnOuYGdFbBPPgTEMl57pscmjGlrW1tnCgmSHLCQEHjO0JO9d1sh+SfoMxc77fxFZJvyldNggAKONRExDKEGdGBW3DSx90gF7OGH8EhviWUuYjzBxr4aOpiyIBgV56FGHcE7CJWeUZ6mMcOvI7J+vtgS8a1DxY2j0OWEUCghgvuk4muOc/xwHuIP6mTPigX8vxxbyFujYGuWsQ+CMjhKba5AnXKF2D9AVyzCr7mdvy2wE3BUS8wTjEaKxoxhQRNdQ7ljFecuIy4wkeJiS80jXcHUIThnsOo8P/GVz1B/5680VFOuK0RmxPaO47YfxxCs8MtExjALeeI2lfgOzPiNBAHS/HSPLZaiy4JR8y2JtZpC/Lolcb+P+NAVeUlqMoctgHkEUwDBEOvNitmTj3KwyKynh8JzRytb6HmBNtS/5MWGry7mY4E8+ifpGP1Og46g28RwoI2OK8EVTCyva8q2IP+jObzLvOqgVyqbava28Cp4y1/X39fZs8qnvLtxehqTQC+YmT+hYh2HPwg9kMtmhLgmTPtVt1IoLgoYX4E3kiHCBoRaR09YKSkEEw/QX8S67MLgnyPqXftOX7zQL6GLdG6jTKFpYr1Stj/cZ1n7Li1gqWT54tZ6Pjz6AmIPipMVPfacZUfmjLmKkoV4kX2x31bZTyLaXpvA6hjBPwv9wfhnXCcWGdhanbA8me/qXcv/4C8RcWpfE6l3odft/nt4meGC/S+TpK4RFhQKtsKeOjNvSO4f3Uy00Y6HYFzuP5VPNnE1ahqYDL0opqJ3BDaISg5zgQgwn8PmbzcJ+TbpGZu+RZ4mQ25d09UeIf+QmJ1dWIFW+jPVN/kfFE/JKT3XzGWtzbwPG4dITXQYO0w93InG73Skd7y1J2adwerzdu3bChkpm52tlf9aUYkC+3aZb6Ttk3J3SqWVVAyzKQPF1F/LJROZPjkaiZqLR96IoA4B0+NTZYFgCyqwDNiA7UGW2RatJ3MEtNFuJO9kmZd8hNzosrgqzkcnQRrgL4VZlnYK3dnx5jZvpv8CChTXG869ubN31X/1ZcMl966gEBeDufj7zSxI1fmJY+HRoEDuPyxZXrrsP6DdpW+o1lZaTfIGyvQ2hYiubktjpX3VbutNowadCX36vvVdr7TCx1mGnNTMRzojilHX0v56lHqc0PhUGNMVbvXQfX4mFUGa6glQGdA/v0A8K8Sh3d71BOJpvr92eediLfgcj01eV9faPP++Muym0HCxks/bGm753GGbcsK9R4ajpy5dKdYfhT5IwNQa0qXGQgwRbh09TV0rD6KVMGmfXK0kATP7H/ECa6H731Hdx8+YNM2rwVpnf2eEaT0E9u9NuCTrX6M6csgXbnCx9GgTbp5QUfvEEyuzmK7vgfKqck+uKPvXJy5ZF8bD/mkX8Bf+k5U7a8IGCBGL68kOuiIqxOq6OhdZLBFhkbpWnCtlpKCyhaVm45/yTjwFNR9VeaJv9d6DdyLXe+3+j9kcDfiYbuylGbftPafFaUbdYWIUJEQWaE9xblHWUoMFMFlzIoVxU0ODj4DDMH/zrgWHp40HYx0zy44GGa5kHU05zCd+FJvOcwRMrNuLRoJIK1CR07s1nrsEKanFU7Z7WXjBpeJ2TLGvGK1M19s2fHgOqb2RYgbban9NlgwaYve9ZK1EgZ8NXyEM3W1qezjvEuYN5UBm4lQd6Miapr58cuFHV+NjNyDUaOu0YlRkCUteetxaW5g6Ic7asth8YYL3SLXR6QLDOcFAYU+r6JoSukrvWLLMn8PSzNRP0waIisI/pv1CRiotkF0rnKrUroDQCYhIdIi9A6TLOv2Ua7QjnuO+n92JJMIhOWmISHkY9oTffD/uSbQ0Op34YZOYYhMqmca4mnhwJi9bSNO46RNe6hsR4QMlizHukdu3yr0ABB4hgGA/w2jZPegK71QwQz46WTmfbfUczJ2nmJNO4xudfjf4PEyw4P780cbhd59ztg49y7/H7yjqd0zXLdU9SXgxFxBOFNSPNRpctS+L9wpsEzVaabbPRonF23rLo2ImMHG4qnGcg/wIES/46NwScg6QFSh9A3Ism43hZpZWfL67nb77cYib4DOj0fkqpc3YnqusQgNQRCsVelCNNw9EPpjP5HcfKyXw7C8GTV6UUZcH7AEux9nqYF71MUwIe0bYTBN/N6Jb8xlsOafCtr8oGtoV59ucadeePRUnCT+Y6sI4gdIqRMJquwtNLHI1EggRxkNnE7lZAcN7UhZfRbhvWTkDji5SQGB59Cg/pei1teWd/7GH77Tr7fGK0U9w2Gzv62q6vr33t6el4q5F8TEAqUmOFP1o02NaIZjutE0XO0exvnnp5Vml4GDbrrsfiLukwY7bHBcQTyaO8SG49OqLKfhxE+SUJRjY45Dxb70Rdhgb+KnQAuh/0wqARvb9TGemZGS8YS5l/qu7uzA20toYOiSPWoAG9Vrv4K3DbIYahDEk64HmEE2VjMfhlUPCGoFLdp+uYcnXKn7JmRyw/j4OOKdfUCw/jVxqamP3H17vFUrqyBv4bfTuRpi65V6qsaR/Q4ybhh0bmCdG/nVzTjBG46Gp5ezoV9H44OLw5RCvvJMtaq/tjghEG5/eLgYN9E6eUHN5n3IVrmX+An+4TRFjwXc+fHLgz6dI+8c5zDabY7Fz4LTy89xzjzPU4lhfSFApCwp+Z0wGDv8bKBEzSEJZlKP+WodKgpZj4Tzjn5kjZNOVMhFMtqcKFPQztpRznnajvV0Zd8qbfgEXw6Ymg53zB+NtzV8EfuaTieKKfxo46MHak/xvTq+w01GCfZ4dxueTlw3s3P43E1AQFKbA0OI5Vt3jEgP4Kl9AZ6XXD5wFD7ogLbwbJGM9kMa88ljs46zEX0/tkZSwP6LrZ1HVnKCBlE9ujp6NjDSCSeROV8IqNQETQ6mbC8wPHKEmktAwwGCKIhCHV0+KHEQOqp0MCp8ay2JUyKic2fb9QNpIL3U3hFgW7sYtg4mWKtEXuR3La/65mp/oXj4Ntct24Rw6ls9eLnbflCw6Pm8s3gPz7zAy0LTdTJHLz0bm7H+2URftroFx1SSZXno6hRhJalRfGn7kMaWbV1N3W5+yDBS25A/3Y2XgH+T2NpYYeIaNjGBAS23Z2Gxk40ND4ovGpjHeqNvxd7TsGX5vpqrxMWw5Ls2X7YUew79V/cztAv05AoBx1eRDv1ZFT4JP1dJMgSQgchwoeGjZ7hdTyuo9/cSINuRwLdDXljL1oZ2iGehmhGvX4Tq7Df2MR7MwLiGQiIv5NcAw0kiMqry0f4z0wsMdO4GYnXVNIKO4SN3nZHUy6DKYZMvWBkkznUTdtDMDfOCSgO5+tpJOvninxd4w6Upufix5CwydEJ4mjrjkLF/SI8e8y2wRdDRpA7+Q7m4llQq26pjkAgHgyZYsA4IwYCKQ9sTqytKW/xTFrCKnEjvY3tbNwLZcpSfkub8KpJOwGV5rRAmd2zLDT88gLDeHBw9mybNXhhWq2cZLUjRyTvQfiBUBmtkNqfNsE2V3xCHEw8rk31GQSca4qOxPVOpRPmH0yIjyxHiZaqjJYhJLOtzIt+8ji7fFaCdkDQpt1L05Zlhh/z0/PmGY3Dg/qkUmrlBhz3rlRqoGeqi4/h68tR7A4NggiKMm4xAZgeZ2aNHtfy2oD0myIncgv4teE5pUs/RZlU/iHVMkq/ES2ZLKeuW7DAuH9wMNdv+Gbro7MjAuGeoC395rVev8nZIBAc4ug3MMszCbmeX7omIJTQKIrhlETb/J9RPWbzYzKdOTKwurfRflGZlbIkuqU2X8eAz+zd66ZjeAizYr+47F4oZuy2/YShHYQAY+exyPIilazVsRxJspaOg6FOUSjB7L03i49XLomxJodCccLcl9qOuNPKwIpxKf8FTp3VnJtQCi1t2/OZtYnQE+ZShp19PixgEn5CxuwaGQDYQpF3TKq8o2kfwaj02pGREWHch6JlOBMJSAazUEeX2X9wsAUBMHV/IQJ+q2k/hc+iJ76drO+2MoB2FwVsex/DEPnPLDPsV6oVEOLTOY7AhmNnZslrhodbxCB4tyAJEJBVJcsLwZTj+7jP60gdv96BOmqfaB0xO+7E4PloDBFlqUImDrAOcyVlXVrAixOM1iMlJvkOaDKl7cCI0PDPOCdVl12zRgSnon4jArz0m99xYFodjOkwzpWRfgOPjXDKOJTJ0/5o0x4tmllFRK95zwAKvBqWGDwym8Y9MK3igZ4Ab0w39Cm8vrmUqXmBhnG3l973h07fBxsLbHeUnsTvMB4fBm5gtCBsdV/fUPQygdbl1Is7so1ytg+NLf3aybbInSaKBPfdy8mDMqsOc2sSieFXwgKm2E+qTGZsabkhU2wX+N1lx+veS+19P1CB+cw9vF2DWdMmp121PNB+NgV3YRQ4YVptAjPz3zhE50bo4K0zl2IL3Vo5zfNEz981TuVbBN4iBz96hcOC7i3ynLIPezWgopbxulhn2mUiWckWWFO5v3cN53/hGT/ld1Xu6dza0dE6NmAifCRocGvC8xDBSO8THjbjfAv9ZlT6jRyO1Nvffzv95l0IOVcGOV8Of+o7Tr8Xm4Zi1euMK14NoTEKvBqWGKSwyaR35OkzYwUvfllAiw/MZvDjnnX74eKo3pfm3FI0EtJPSh0n9Wnj1FJfOoeYnT2A/1BpWOHb0eoxmGvUMgK3RtoHFeJO9Mmsf3ZHR8tRzJZ2j9qjXAlsysN5QuFXG1eSnhnTcWHxhE7QbwlhAWEuLH6pnzDrOXOaRNsyUZeVi5lsO3UBLLucwFbUXrSZWUaGoYMPZbLZGiNGkpNysnW2q6tVjP12m0zdTQqJcRL39w8/TgWuCI+Gtk7JtkbOnVDqDaUClVf3St/DTpSxqWo4nIn5IvytpW2tCUtN3pZjFgt9YfHC/Jx0+rWkP5ZJAbfEypJl7offHN799Y4wqh/zylkCiHjwB3XofGP+pI0lZ9G3makfIn2dbKLk3CIM5A6aqeg3bcbA1yjLP4uA+z4I8/pNTYPgI8pMfo0ajWYyzhPEbQSGdG9Y5wSetNdAm6XPrkBbIEsJAccuhfto7GEDgsCJBRIQmSv57gj4+zxisZgMSC/4vMZewZsrBPTbxjwm8ALj2MO2sJ9wjb9itHn/0GD/A9xhcF17e+v7ABc1mw/PifKgRZXdAVU7mFcHM6zjSweIHCDPQBHhq3LX3t58DDDPbWtrvjaTHr4/Paoe5pCWy4EQmKFWCrW7m7VXdq+Etxcpe/HBRH19Iy/guzwMvpQTtfnpkigsvBK/eRzoNToyeBMn1t1JS5C6u7+jrfn3HW1tHyd9XSUwNlMc2Vb85zC6eU1GG4dz8NSp1L8YixY7oVNFuxeKk1XxNUoNPBSOG7WXE+yrriOWFU6maoNtzSuPWypk3hne7iV7Y9FAe9KbYVdRpqKonW0tH8ua3JRquHfZlvoH/ft26Qth94Cw3HM8/earwgM45+MB6TdtbS3fBWB1vMCHwZqkt4QSxWdl4UXsLILM1gdji76yMBQXtiETlc3pyE64yoxxXvmhA6qx4GA2Y7CcWkSQ0G+L6pylOeWZyH34iwo64FCrrYkaEAKR8SAuVxwr0SBEOoyCUsS7PZKBGcZb6NQLIgGME5C1jP9k94WoMZtpj5wgqUTNfzpc+SoG2SPHSV4U7DVmZk3gc0BRQAUf2Gi8mfa3Q1hUeGo3N2DeHRYW5tfZ1vYOdDN/YdA8j7VvBCi1Lz+2ZalPdna2yHLPxJ1p9ocnxuJABZar5EKm0IFRYJDi6K7W1gnjM2waH6PujgGU1B0zQy6mUuqtAL4MNfYZ4XhOXCCJgFeRt2uYkcsMAJBZ7Tf4BYQa2tRGLj26m7Dpc0r/JYoH0CaP5NbPqtT87IDijhQjcNeLFIDy9Jlp5yF/YWjb9/K93u9XeCd/C3soEfgm5JqamuYiiJ5HYqFxC7+FtJNjORH0k05W/Zzven6ek0kBQsRN9Juv0X8QXhUCG/3GMM5CaKi6TxfgypMZUkS/IYf8gVTEmZmOmdN9HMGyBEJkGuLKiG8BYWFLUYbK4Txdw5By85p10/pxTji7dUvhs7nzTTteZ+2pJF9hIhhe310mLkY7LrM5KFmBA9wyVJwvjBNVK0f/hrxDhRKy6kJe+fo4MEKDZbZArb8d2P6+iebbm2XXmc5EDmjRTeAjDMkPMzT/gqcsAUCxs8k3QDiPltq4eWho6OVC/PGe6BsWw3aaqay6fFkEF4Eddx3j8+OlLxfOktDuUXI9YQEcaS9/gL6DoTCVUc/FIBcIXqHhZTxlSYHgzwDbP7PL151uQIQN0LIMuGkPQnjGME+HalPIHNvU4GFK+W50DzuOQgfPCKSrLrfrmneD29pweLoRW5LPhYdF+TrvBfeFpaFSHgSE+xPDwy/6wyjfBvxDBUnaL06f3tnaerI/TaXvsZj1FZr+POIX6CJP2UaKeYWu492vMBZNRZPXb3KaNq/fgLfE/SxhE3YIKYu80odAABev31TMMEJgTKtXQ3/yJrPXOo5rgI9PZ50LOZr1MaiY9YQFup9U7HQ4r+6nA/A4MKU4BaGAV8dxjcfTWf1t8Dmhd8Q6tmkwcc04ILaZYAaeVxj2H62wjnu4XOWxcoVnQBONxLhV6w18Iccrh8FODgzcT+dCRRh0Mqji/15UtF8Ihkb7IBzszLW5PwTVxtJYXj7aeLA3lXq0NGy8byk5A+WbmY2cO17cQng2PfI1UjHLDzrwy3DG8VWEjEvTQmrsNu4Iq4I8gNNRuX6xELeaJ7OoXWgrrwuvXblT02UQLHYYoT0DQf4U1r48OEqfiP3HN4tTlf+StWEmNf9NeULtKij786gu/loeymYPTVODN3jtPjzr0PEBDd8NRK+47sNBl/dFeEkgKF8ThpvXng3jPX7DwnLQZK2fAfY/SRdaHoryPyHloXzOj6k32UIYcATWI8L/iCWBKjUZre/mgrOPAzfAOryyalNw8dn16NtD+41QX+t3sXT1iQByFXhw58ae1OCxYf3Gy89UXr+JIFgFOUxzFHW+kVXnbxyw+xIPxhv7Luivs49lTfZ4VD8XZt3NIyxMcxE98TGGsCNCDx8uQsHS0ay+2DDtE/oz1rHxxsTX6/sT988+pzsl9JhufGYQfJq/ul2IUoFbOt5sRqkYAkTUbGRTDtIx6Ld3bvIp+8bxZ/oi4SJhsQBl0wEv6mxv/Wb+voewaGN+HR1N+zNx+APw9hzz9L3gT3bGd/HyMQ9fhHFeSQ8++rz29rbvydG5ZaKrjraWLxP/c9AjwB/yg+oNCCr/KAMjEATDv5ciPBEIyHnYTJkuRID5PkaZaF8qc7NR1TKLEkElNA110M9JxQhyAedyCCJX53pXYQcC8bfgNZ/vaG+9AqGtPRChxKOrq2EHJ5v+DcsTxxEUaLQe43eNKxBMekuSbvlP05VlhorbFLTpHc1mK+0jkymfRqi8CtySYUBon3Jr4Y8R5I4OCy/4IUDumjXV1eA9r+Dnf+LPhWwDf/H7Fd7ZyfQYfe7aMCFF4oDbQtcx/4hNzQmFNOWeTBg+CLwferiHRATes47W/+sPspMpBGtjpd/P9x7jZtRL4TFfFwHV51/2tbOzYT5aO+k3UW27J51fcgkwgLKQt0AgA6OrPm5k5nx640D9QOIBuzFxQZ0TP8ZSseOYYV/IoLpZNAtTVXThHj6hQIP/MoSCS7KGdUI8Yx1d15j4Wn1y4989oYByS/mnKu+tC45zFx2mrFCUk7j1PZSLPhftuOSknwgPhs0Y/amIs548l/j9yr339Q3eQfivoxgIYXFG9XPSo8N/kzV42YNdCg8GtpDl0a8arvk3OM7BhIcMMF6q6zkVMJSRlcIs8x1DDv0s5+rf0dne8iFhFMT1eIAsKQizhYn9Hjp8C/9QFTvMKpl19PmEV9suh4B7UZk6QEzWZ3Fr4D3g9gXZvUEeiM9BJ4IBRlofycbM26GZMOcQmuHF7DiZHHkhCMEwONN+OWkvK1N3MQAwO3Nvl3Vg8MEWpNiJH5qPj7hZW/A4FdqE4ittykzFfkpqSDCzHJebyRLDk5Vgla+7e6tZWqoEblQchMpnoesPouoIeu/AUsP/IdB+BaF3Rz8c1vm3o24+Spu6FbIfQliwjeCJrduFPAb8aX3vrk5nzqcPB5ap8nGkke1mKvOGnDDZdCD+pW3Apt8vJvzX1L4IPKGDsiDnave8UiGyW3ZoGeo7AeTzCECDBvD7Kkck341G5UwRiAgKHdfZfj1PjCO1Y6NRNY4iXgCs0JpGer1ocSWLQATx3BocLEqIYLI6U5eNtxzAOedY3BqnUrj96mLKxojGyMDCIETFrgH2OZLRVzd8IfG+qESD32s/r7HOvGA4XTlgITJW6fw8+OwcMlbw+yuN8+b6dHLJknZj5JCXDefVKwyEUrueu+sfh06hM+p8CpT5+gTuub87FILPUwYUjON+Rgf1+W56JR/O3TFu7utPvRHf8Eiboo+9sUVpDvV6G8n3L5NIBlOEHbUWfJfxfBGVv018WQPkREDVCV7CWKL643OGylDOkefHMva9iJDBwA9ceoPfKeMpShK0QqeolNchrIccn4OIw6g954HPLiAgeJUyOQ+q0Mhx9Zn9/QM/wqNMcf1IFL1bnJT5c45B/kBUPQhc8kEbr7iaWK9EEfs0Ku2XeMosdzZ02xUacsCPp8q38YuimQgyR7IV76kiDIo/mrEMZ6lBRSxReJELdbeOfJ/A57k8iIVgehDoihFnGTxUn6uNkxnsiozg8jAMmfllM6NSdzsX/HzPDUwg9mHQYJyYPof1/P/DQO6bZerEy1zqn0r/UDKZ+lU12MjMmaS/jOh66/NlDLU56ugw2rTbgkGwcWhEelnPy0hbpo08RVvpBsdO/PagPHPBM7RuPKFDu79P9A28hzjlJiIKDcEZDNK/zcMKLTr5Sf8egUJLwWUFkURb1MVvXxDcH3+5PTGiX9F7tf5FX1/qY8R3+JW6GDj8L4LIv5epo3y/4ShxZayEBs9wEdo6Gm8G2s8Bp0XSbwAs152H0iSfaber1RG011XyLRG3SpcfTL3Oq3XqQeM64yEOyr8wq1oOTDuxU1ERnkbB9kd9b3nCAmSHaJvNCdcqCAVoCNj5Zjw1mnX/BsFvfDadfGyPYe/CHbcmFERWyQisX7bh7BnZKbSBrYIVWGMOg8jgf58y3SE6cWB9PxcfFmDqO3ivqpkwAG3oaG5+j7bUTdT5gojEIswyI9cLGeAWUK6c6V9uHRIjtohUOcRkkHhfKhU+E85FCf2bwYby/RhcfxoafqgkDzGcE5zmgglr5l6oNFnQC3cwHS6i0lcgHPyYGFHRwhNv8kVrbH6e7HYApxNLcCrEQlaR7ae6nUxeQ7aHC70EOXHMlgrUK3jlAor/yh7ML1A3UarZQuyB0bTzobp47EaWKg6MqIZC3WEfYuwEs8+VnbrzcIFmBWAhz1EQ+Tg0ezgkbMZ4ccvCjdTt10CINhrtoE/CtLK3R8eY+pBEwujraHI/Ytho2KS9hrhce/Ha8hyvBVND+Em9hNaN15Y57CyT9Yz8ygkHkptmCeJ6JhjnAuySkOw9L/KDtetmPuSshdcU4tHGMfYca74F77EncUU4uMU07bPxDBMOJG6Ge2rOpJ7mEf/o8v3G6AKXIwF7hDTUAgEq7DfI/+5n+/sHn5VMxUnj3+odxNDqHczAzzaG7c+l/hGf13t+nZE4kno5RpYhsFl4HEq5YwaOZUqc6/1lIpQJksooLB9II0QoWIlQcKll6xPiaeuIuh2SX7Y/n7x3z3NQG3k2FlWracvkvi0GaTEuDC2Y0JfW+6icqhcaocSTWRgzPyXq1FBHPohx5j2hgeN4JgYGVmSy7luItkw6fBkno4sIBJb8iBfZ//JgnkM4eBu4P0jccELkMgvJVK1gDfXxWF/qLDr978vglaPkJl4SQF9wYQD5YbJ/4IsERjGxQLowD6kvuNA7Kf8fypPKSy3Cwhi9fDQLKe9Ybhjeqc+zHPMrfMrRzEvA8bNrGUveRsT7y9BI4hbVndSj+HlASv7kPTmNT3+AweU6gsfFowTEZv1MJAafAufHy2Xq1ZU27u/tHX6pXLzpCGM5aFnG0f8ODi+P02YKgm903eQqZwX96h3YLnlq9Apw5ubR1KW0KxnEx7PXoM3m+ne+vYa2EclT2htxrmfy8l6WQfvK4SFapEzGfTv9kC2PkSALIKTfeDymgAsBkTSRREAcob2iHRy8hs+x9hrJoCTR1uiE5gVhoeHs3gdveCDx9br+xGuR4Y5JO/oihIWllQoLlZRfqsovFHD86D9Hs8bllnJfh1BwuCcUnJm8R4mhoQgxMv+puYooYKcdGRiT4ZG9TnJPeFiobxbCl9vuyPHKfePNOEMB46lhNstGM84pdLKroyJV408H/yNj4+thDA8I/HJpOUo5Q5SxvuwxHkPfTBq5anGAQeoDCKsXChMYn7dsyikftxtJ9zMIB7KlajzmuClxmTfK1JPsS72bgVkY7voKGF4ZaLkgD1dUzKhH35bs778CX9EuVuKYIfatYYb2Zmj0IxJkq6FRaQaSFl7zAHi8IS8cVIBH5AzTa+SleUzDt8yiy+1mIFgYq3EDL2Xb4jTgJiA12qD72JNyGrlzgNLEcpF01PHNLD6fRht8pkooDu3qv6R9AebpybRZL60y+rXrnkc/eI/0h0pwEWPsZH/q7WgcvkL87onSwZ9XHsaT3Mr6ZtrrTwgraq9jTMWfaFt5p/D6Hdd5a/sjDZ9PPPDtZOJrdXbicBZrjhJhASmySFioptyyfCAaCbY2sS6rnh7NGD8QoaDOjR9a19f7BfvzfXfVhIJqKBqM2zPszVbEDiHgkIyxGVD3BgLKeoRrJLwOO87xymXB5gI1hj3rWJ/9gHK9Y2rvwhuBMAT5EGD5eDI7vxde/DYYx9sZuNB6jM+QObiJ9XHjKrLqJzc5ifJhy4rJUkDBjfT19Z+HcPw6lt5ulDiCVilqOT+WWnKpNjAi/Dd95MhE/8AP8ZqU5qCAiO+ZSSb7L8e24jVMo76N/2oJq5ReRXGVsZxR64togI5i7dQTjCS8CqdJ1wuNPoOAdzIUv4W03NmTp8Q4gHzxllGWT9EGTgSeLCsUMdswMPF4vBxdMQ0wy4WHgZyQH+d63EC7QdAMd4QNWFZW1PxVO5nNlklULsyfTGNQ+YQVq3s99XMuLeWFsDbsTyDvvrr5F9LBp9EEvDVvyzMRQceV9oU242i4zwV0zRekhfjyKM1+7DsXz/vsQwvwPzSNYxC6v4XP6Fikyl64kjx1idgJQIfvkfvzkqwSHLx4xXGXYuT5WdOKHY3BtSwdBdqr4P2qdDRateYCo66rpfPgOkufJjYL8ZjafzSjr204O/GuKKIMfrf9G42N5tdG08a/TFffwrr2n+x4/GHjUxs5gW98Zh4Ft+YfTgEs69/EQCWHErWUxPiDzELxi2RqJfHls561xOu510Iszv1uo+kap7N1T2brU+E8foCV++EIkG/k4yhG3UXk2cl7HRlIOJ1Rj6D5Y/agn6WH/x1bmZuZTYgxm2BXjCEe4ziMqdoWcCd8DBgvEnc4Ir5iSyVGftYJWMYsRhyYBzJiQJVFCZmEia5ipvgg2pv7EdDWAaNaPCKyLeutsPTuQCeKpk+/DlocTOyd+XXyE5uRwiAig+UQP4z21HN0t0e4me62+vqBh9av9/ynClfB51Dq7k0U/1josxv0EYMz/xq9tDtRC69m8eFh5Zo3J/r77+Fb8KsKD6zwzyGBbC2VsnqOPMVI8zKM6C7Coyp4eRBVP9it8Q0EnDPJjjYqKyriRLuhZAfKxQxMDEjVO9rloaZy7gFUo78gMsCzDHx7sq//VKBW04+V3F9g2+oNGCWSVouB8FxgFNqKDHRDgGcJQXGjq3EjVrl/ReAWbaQfBT4n7DwcuBnyJHoz9m7YsBjeqaNNQCxMvCUvaQ/ricPyprpTDKERMlbhNxV4KHhMFzt/jgTcCcA/GBrvzHsH8Bv4FfqNaIjy/UY/y9D3CKY0t2HcLbwGHhSNCzSsOWpKGZ8x4tmFHYdlDbU7SxM/j6LK0GVtZ5jaHK3LWHcb53QPSBuPilvznxoKwAz2siy9o0CDUSvLMocSidTDfFYrfRvshm5sH2pe7Lq6PifQidG+sQrmsVrgT4Pz+hgdWQa7WUj6bbbWtmM6ozz6mCF2y62T+Xw3d1uK6v+bGw8/2T2c2LbWwgFYXUplW13XqpcITKZhZrGkbdu9XNRU2Jo2nbgW6q4rpvUcNI8drC7HlaMyhu32pdPGRtS+rOJ4M69J4SFnKaTTdjOwBI6KZ7MDeQ0an5vNKba+7uA4cRFix1wskxnuRjs25jGBl46WliMx5P0EpcMoVgRkjZxuPJzOupeL6nwCIAtJpI7qwbtLpa0WN6ZjKqMcI+5wdeEwgmT5AbAAZJJPDweOzNiOiQx93PHqkdMgh+jvPWiJNmzcuHGQPCbVRsbBUXAwOFKa/uKyi8PrNyIkaMtyhrWO9XGHTE8eD4laES7/H36jt7KtWM/PAAAAAElFTkSuQmCC;shadow=1;" parent="1" vertex="1">
          <mxGeometry x="1900" y="1094.5" width="240" height="90" as="geometry" />
        </mxCell>
        <mxCell id="U4LaeEB2JGTNml4eQ_Fa-50" value="INTERNET" style="aspect=fixed;perimeter=ellipsePerimeter;html=1;align=center;shadow=1;dashed=0;spacingTop=3;image;image=img/lib/active_directory/internet_globe.svg;labelBackgroundColor=none;fillColor=#CCE5FF;opacity=70;fontSize=30;" parent="1" vertex="1">
          <mxGeometry x="995" y="1890" width="240" height="240" as="geometry" />
        </mxCell>
        <mxCell id="U4LaeEB2JGTNml4eQ_Fa-58" value="" style="endArrow=classic;startArrow=classic;html=1;entryX=0;entryY=0;entryDx=0;entryDy=0;exitX=0;exitY=0.5;exitDx=0;exitDy=0;shadow=1;" parent="1" source="U4LaeEB2JGTNml4eQ_Fa-21" target="U4LaeEB2JGTNml4eQ_Fa-50" edge="1">
          <mxGeometry width="50" height="50" relative="1" as="geometry">
            <mxPoint x="540" y="1925" as="sourcePoint" />
            <mxPoint x="740" y="1910" as="targetPoint" />
            <Array as="points">
              <mxPoint x="700" y="1925" />
            </Array>
          </mxGeometry>
        </mxCell>
        <mxCell id="U4LaeEB2JGTNml4eQ_Fa-59" value="" style="endArrow=classic;html=1;entryX=0;entryY=0.25;entryDx=0;entryDy=0;exitX=0;exitY=0.5;exitDx=0;exitDy=0;shadow=1;" parent="1" source="U4LaeEB2JGTNml4eQ_Fa-20" target="U4LaeEB2JGTNml4eQ_Fa-50" edge="1">
          <mxGeometry width="50" height="50" relative="1" as="geometry">
            <mxPoint x="790" y="2030" as="sourcePoint" />
            <mxPoint x="840" y="1980" as="targetPoint" />
            <Array as="points">
              <mxPoint x="600" y="1956" />
            </Array>
          </mxGeometry>
        </mxCell>
        <mxCell id="U4LaeEB2JGTNml4eQ_Fa-60" value="" style="endArrow=classic;startArrow=classic;html=1;entryX=0;entryY=0.5;entryDx=0;entryDy=0;exitX=0.75;exitY=0;exitDx=0;exitDy=0;shadow=1;" parent="1" source="U4LaeEB2JGTNml4eQ_Fa-50" target="U4LaeEB2JGTNml4eQ_Fa-24" edge="1">
          <mxGeometry width="50" height="50" relative="1" as="geometry">
            <mxPoint x="1020" y="1850" as="sourcePoint" />
            <mxPoint x="1070" y="1800" as="targetPoint" />
            <Array as="points">
              <mxPoint x="1169" y="1780" />
            </Array>
          </mxGeometry>
        </mxCell>
        <mxCell id="U4LaeEB2JGTNml4eQ_Fa-61" value="" style="endArrow=classic;startArrow=classic;html=1;entryX=0;entryY=0.5;entryDx=0;entryDy=0;shadow=1;" parent="1" source="U4LaeEB2JGTNml4eQ_Fa-50" target="U4LaeEB2JGTNml4eQ_Fa-39" edge="1">
          <mxGeometry width="50" height="50" relative="1" as="geometry">
            <mxPoint x="1480" y="1980" as="sourcePoint" />
            <mxPoint x="1530" y="1930" as="targetPoint" />
            <Array as="points">
              <mxPoint x="1700" y="2010" />
            </Array>
          </mxGeometry>
        </mxCell>
        <mxCell id="U4LaeEB2JGTNml4eQ_Fa-62" value="" style="endArrow=classic;html=1;exitX=0;exitY=0.5;exitDx=0;exitDy=0;shadow=1;" parent="1" source="U4LaeEB2JGTNml4eQ_Fa-23" target="U4LaeEB2JGTNml4eQ_Fa-50" edge="1">
          <mxGeometry width="50" height="50" relative="1" as="geometry">
            <mxPoint x="850" y="1820" as="sourcePoint" />
            <mxPoint x="900" y="1770" as="targetPoint" />
          </mxGeometry>
        </mxCell>
        <mxCell id="U4LaeEB2JGTNml4eQ_Fa-64" value="" style="endArrow=classic;html=1;fontSize=30;exitX=0;exitY=0.5;exitDx=0;exitDy=0;entryX=1;entryY=0.25;entryDx=0;entryDy=0;shadow=1;" parent="1" source="U4LaeEB2JGTNml4eQ_Fa-38" target="U4LaeEB2JGTNml4eQ_Fa-50" edge="1">
          <mxGeometry width="50" height="50" relative="1" as="geometry">
            <mxPoint x="1310" y="1910" as="sourcePoint" />
            <mxPoint x="1360" y="1860" as="targetPoint" />
            <Array as="points">
              <mxPoint x="1610" y="1956" />
            </Array>
          </mxGeometry>
        </mxCell>
        <mxCell id="U4LaeEB2JGTNml4eQ_Fa-67" value="&lt;font style=&quot;font-size: 30px;&quot;&gt;private&lt;br style=&quot;font-size: 30px;&quot;&gt;&lt;/font&gt;" style="rounded=1;whiteSpace=wrap;html=1;shadow=1;comic=0;strokeColor=#d6b656;strokeWidth=2;fillColor=#fff2cc;fontFamily=Verdana;fontSize=30;align=center;arcSize=21;verticalAlign=top;rotation=0;opacity=70;spacingTop=0;spacingLeft=10;" parent="1" vertex="1">
          <mxGeometry x="2470" y="1260" width="600" height="300" as="geometry" />
        </mxCell>
        <mxCell id="U4LaeEB2JGTNml4eQ_Fa-68" value="&lt;font style=&quot;font-size: 30px;&quot;&gt;public&lt;br style=&quot;font-size: 30px;&quot;&gt;&lt;/font&gt;" style="rounded=1;whiteSpace=wrap;html=1;shadow=1;comic=0;strokeColor=#d6b656;strokeWidth=2;fillColor=#fff2cc;fontFamily=Verdana;fontSize=30;align=center;arcSize=21;verticalAlign=top;rotation=0;opacity=70;spacingTop=0;spacingLeft=10;" parent="1" vertex="1">
          <mxGeometry x="2470" y="1570" width="600" height="300" as="geometry" />
        </mxCell>
        <mxCell id="U4LaeEB2JGTNml4eQ_Fa-69" value="&lt;font style=&quot;font-size: 30px;&quot;&gt;isolated&lt;br style=&quot;font-size: 30px;&quot;&gt;&lt;/font&gt;" style="rounded=1;whiteSpace=wrap;html=1;shadow=1;comic=0;strokeColor=#d6b656;strokeWidth=2;fillColor=#fff2cc;fontFamily=Verdana;fontSize=30;align=center;arcSize=21;verticalAlign=top;rotation=0;opacity=70;spacingTop=0;spacingLeft=10;" parent="1" vertex="1">
          <mxGeometry x="2470" y="950" width="600" height="300" as="geometry" />
        </mxCell>
        <mxCell id="U4LaeEB2JGTNml4eQ_Fa-71" value="" style="shape=flexArrow;endArrow=classic;startArrow=classic;html=1;fontSize=30;fillColor=#FFB366;shadow=0;strokeColor=none;" parent="1" edge="1">
          <mxGeometry width="50" height="50" relative="1" as="geometry">
            <mxPoint x="280" y="1310" as="sourcePoint" />
            <mxPoint x="550" y="1310" as="targetPoint" />
          </mxGeometry>
        </mxCell>
        <mxCell id="U4LaeEB2JGTNml4eQ_Fa-73" value="" style="shape=flexArrow;endArrow=classic;startArrow=classic;html=1;fontSize=30;fillColor=#FFB366;shadow=0;strokeColor=none;" parent="1" edge="1">
          <mxGeometry width="50" height="50" relative="1" as="geometry">
            <mxPoint x="980" y="1310" as="sourcePoint" />
            <mxPoint x="1250" y="1310" as="targetPoint" />
          </mxGeometry>
        </mxCell>
        <mxCell id="U4LaeEB2JGTNml4eQ_Fa-74" value="" style="shape=flexArrow;endArrow=classic;startArrow=classic;html=1;fontSize=30;fillColor=#FFB366;shadow=0;strokeColor=none;" parent="1" edge="1">
          <mxGeometry width="50" height="50" relative="1" as="geometry">
            <mxPoint x="1840" y="1310" as="sourcePoint" />
            <mxPoint x="1990" y="1309" as="targetPoint" />
          </mxGeometry>
        </mxCell>
        <mxCell id="U4LaeEB2JGTNml4eQ_Fa-75" value="" style="shape=flexArrow;endArrow=classic;startArrow=classic;html=1;fontSize=30;fillColor=#FFB366;shadow=0;strokeColor=none;width=31.6;startSize=6.2;" parent="1" edge="1">
          <mxGeometry width="50" height="50" relative="1" as="geometry">
            <mxPoint x="630" y="1250" as="sourcePoint" />
            <mxPoint x="750" y="1250" as="targetPoint" />
            <Array as="points">
              <mxPoint x="690" y="1200" />
            </Array>
          </mxGeometry>
        </mxCell>
        <mxCell id="lQt0SlySoxmX6tBmt01I-1" value="10.100.100.0/22&lt;font style=&quot;font-size: 12px&quot;&gt;&lt;br&gt;&lt;/font&gt;" style="text;html=1;align=center;verticalAlign=middle;resizable=0;points=[];autosize=1;fontSize=15;" vertex="1" parent="1">
          <mxGeometry x="1795" y="1360" width="120" height="20" as="geometry" />
        </mxCell>
        <mxCell id="lQt0SlySoxmX6tBmt01I-2" value="10.100.120.0/22" style="text;html=1;align=center;verticalAlign=middle;resizable=0;points=[];autosize=1;fontSize=15;" vertex="1" parent="1">
          <mxGeometry x="1795" y="1435" width="120" height="20" as="geometry" />
        </mxCell>
        <mxCell id="lQt0SlySoxmX6tBmt01I-3" value="10.100.140.0/22" style="text;html=1;align=center;verticalAlign=middle;resizable=0;points=[];autosize=1;fontSize=15;" vertex="1" parent="1">
          <mxGeometry x="1795" y="1510" width="120" height="20" as="geometry" />
        </mxCell>
        <mxCell id="lQt0SlySoxmX6tBmt01I-4" value="10.100.200.0/22" style="text;html=1;align=center;verticalAlign=middle;resizable=0;points=[];autosize=1;fontSize=15;" vertex="1" parent="1">
          <mxGeometry x="1915" y="1360" width="120" height="20" as="geometry" />
        </mxCell>
        <mxCell id="lQt0SlySoxmX6tBmt01I-5" value="10.100.220.0/22" style="text;html=1;align=center;verticalAlign=middle;resizable=0;points=[];autosize=1;fontSize=15;" vertex="1" parent="1">
          <mxGeometry x="1915" y="1435" width="120" height="20" as="geometry" />
        </mxCell>
        <mxCell id="lQt0SlySoxmX6tBmt01I-6" value="10.100.240.0/22" style="text;html=1;align=center;verticalAlign=middle;resizable=0;points=[];autosize=1;fontSize=15;" vertex="1" parent="1">
          <mxGeometry x="1915" y="1510" width="120" height="20" as="geometry" />
        </mxCell>
        <mxCell id="lQt0SlySoxmX6tBmt01I-7" value="10.105.0.0/22" style="text;html=1;align=center;verticalAlign=middle;resizable=0;points=[];autosize=1;fontSize=15;" vertex="1" parent="1">
          <mxGeometry x="360" y="1360" width="110" height="20" as="geometry" />
        </mxCell>
        <mxCell id="lQt0SlySoxmX6tBmt01I-8" value="10.125.0.0/22" style="text;html=1;align=center;verticalAlign=middle;resizable=0;points=[];autosize=1;fontSize=15;" vertex="1" parent="1">
          <mxGeometry x="360" y="1435" width="110" height="20" as="geometry" />
        </mxCell>
        <mxCell id="lQt0SlySoxmX6tBmt01I-9" value="10.145.0.0/22" style="text;html=1;align=center;verticalAlign=middle;resizable=0;points=[];autosize=1;fontSize=15;" vertex="1" parent="1">
          <mxGeometry x="360" y="1510" width="110" height="20" as="geometry" />
        </mxCell>
        <mxCell id="lQt0SlySoxmX6tBmt01I-10" value="10.205.0.0/22" style="text;html=1;align=center;verticalAlign=middle;resizable=0;points=[];autosize=1;fontSize=15;" vertex="1" parent="1">
          <mxGeometry x="480" y="1360" width="110" height="20" as="geometry" />
        </mxCell>
        <mxCell id="lQt0SlySoxmX6tBmt01I-11" value="10.225.0.0/22" style="text;html=1;align=center;verticalAlign=middle;resizable=0;points=[];autosize=1;fontSize=15;" vertex="1" parent="1">
          <mxGeometry x="480" y="1435" width="110" height="20" as="geometry" />
        </mxCell>
        <mxCell id="lQt0SlySoxmX6tBmt01I-12" value="10.245.0.0/22" style="text;html=1;align=center;verticalAlign=middle;resizable=0;points=[];autosize=1;fontSize=15;" vertex="1" parent="1">
          <mxGeometry x="480" y="1510" width="110" height="20" as="geometry" />
        </mxCell>
        <mxCell id="lQt0SlySoxmX6tBmt01I-13" value="10.005.0.0/22" style="text;html=1;align=center;verticalAlign=middle;resizable=0;points=[];autosize=1;fontSize=15;" vertex="1" parent="1">
          <mxGeometry x="240" y="1360" width="110" height="20" as="geometry" />
        </mxCell>
        <mxCell id="lQt0SlySoxmX6tBmt01I-14" value="10.025.0.0/22" style="text;html=1;align=center;verticalAlign=middle;resizable=0;points=[];autosize=1;fontSize=15;" vertex="1" parent="1">
          <mxGeometry x="240" y="1435" width="110" height="20" as="geometry" />
        </mxCell>
        <mxCell id="lQt0SlySoxmX6tBmt01I-15" value="10.045.0.0/22" style="text;html=1;align=center;verticalAlign=middle;resizable=0;points=[];autosize=1;fontSize=15;" vertex="1" parent="1">
          <mxGeometry x="240" y="1510" width="110" height="20" as="geometry" />
        </mxCell>
        <mxCell id="lQt0SlySoxmX6tBmt01I-16" value="10.115.0.0/22" style="text;html=1;align=center;verticalAlign=middle;resizable=0;points=[];autosize=1;fontSize=15;" vertex="1" parent="1">
          <mxGeometry x="1060" y="1355" width="110" height="20" as="geometry" />
        </mxCell>
        <mxCell id="lQt0SlySoxmX6tBmt01I-17" value="10.135.0.0/22" style="text;html=1;align=center;verticalAlign=middle;resizable=0;points=[];autosize=1;fontSize=15;" vertex="1" parent="1">
          <mxGeometry x="1060" y="1430" width="110" height="20" as="geometry" />
        </mxCell>
        <mxCell id="lQt0SlySoxmX6tBmt01I-18" value="10.155.0.0/22" style="text;html=1;align=center;verticalAlign=middle;resizable=0;points=[];autosize=1;fontSize=15;" vertex="1" parent="1">
          <mxGeometry x="1060" y="1505" width="110" height="20" as="geometry" />
        </mxCell>
        <mxCell id="lQt0SlySoxmX6tBmt01I-19" value="10.215.0.0/22" style="text;html=1;align=center;verticalAlign=middle;resizable=0;points=[];autosize=1;fontSize=15;" vertex="1" parent="1">
          <mxGeometry x="1180" y="1355" width="110" height="20" as="geometry" />
        </mxCell>
        <mxCell id="lQt0SlySoxmX6tBmt01I-20" value="10.235.0.0/22" style="text;html=1;align=center;verticalAlign=middle;resizable=0;points=[];autosize=1;fontSize=15;" vertex="1" parent="1">
          <mxGeometry x="1180" y="1430" width="110" height="20" as="geometry" />
        </mxCell>
        <mxCell id="lQt0SlySoxmX6tBmt01I-21" value="10.255.0.0/22" style="text;html=1;align=center;verticalAlign=middle;resizable=0;points=[];autosize=1;fontSize=15;" vertex="1" parent="1">
          <mxGeometry x="1180" y="1505" width="110" height="20" as="geometry" />
        </mxCell>
        <mxCell id="lQt0SlySoxmX6tBmt01I-22" value="10.015.0.0/22" style="text;html=1;align=center;verticalAlign=middle;resizable=0;points=[];autosize=1;fontSize=15;" vertex="1" parent="1">
          <mxGeometry x="940" y="1355" width="110" height="20" as="geometry" />
        </mxCell>
        <mxCell id="lQt0SlySoxmX6tBmt01I-23" value="10.035.0.0/22" style="text;html=1;align=center;verticalAlign=middle;resizable=0;points=[];autosize=1;fontSize=15;" vertex="1" parent="1">
          <mxGeometry x="940" y="1430" width="110" height="20" as="geometry" />
        </mxCell>
        <mxCell id="lQt0SlySoxmX6tBmt01I-24" value="10.055.0.0/22" style="text;html=1;align=center;verticalAlign=middle;resizable=0;points=[];autosize=1;fontSize=15;" vertex="1" parent="1">
          <mxGeometry x="940" y="1505" width="110" height="20" as="geometry" />
        </mxCell>
        <mxCell id="lQt0SlySoxmX6tBmt01I-25" value="10.100.0.0/16" style="text;html=1;align=center;verticalAlign=middle;resizable=0;points=[];autosize=1;fontSize=15;" vertex="1" parent="1">
          <mxGeometry x="1570" y="1250" width="110" height="20" as="geometry" />
        </mxCell>
      </root>
    </mxGraphModel>
  </diagram>
</mxfile>
